<svg width="57" height="57" viewBox="0 0 57 57" fill="none" xmlns="http://www.w3.org/2000/svg">
<path d="M2.34225 32.0201H3.8017C4.06542 37.597 6.40014 42.875 10.3492 46.8218C14.2983 50.7686 19.5777 53.1002 25.1548 53.3606V54.8389C25.1548 55.1296 25.2703 55.4084 25.4758 55.614C25.6814 55.8195 25.9602 55.935 26.2509 55.935C26.5416 55.935 26.8205 55.8195 27.026 55.614C27.2316 55.4084 27.3471 55.1296 27.3471 54.8389V53.3606C32.9218 53.0984 38.1982 50.7657 42.1439 46.8188C46.0896 42.8719 48.4208 37.5949 48.6814 32.0201H50.1659C50.4566 32.0201 50.7354 31.9046 50.941 31.699C51.1465 31.4934 51.262 31.2146 51.262 30.9239C51.262 30.6332 51.1465 30.3544 50.941 30.1488C50.7354 29.9433 50.4566 29.8278 50.1659 29.8278H48.6876C48.5168 25.8345 47.2773 21.9603 45.0985 18.6094C45.0195 18.486 44.917 18.3794 44.7969 18.2956C44.6767 18.2119 44.5412 18.1526 44.3981 18.1212C44.1092 18.0577 43.8068 18.1117 43.5576 18.2712C43.4342 18.3501 43.3276 18.4526 43.2439 18.5728C43.1601 18.693 43.1008 18.8285 43.0694 18.9716C43.006 19.2605 43.0599 19.5629 43.2194 19.812C45.1785 22.8034 46.3049 26.2627 46.4828 29.834H41.4718C41.3174 27.6049 40.676 25.4368 39.5927 23.4826C39.5228 23.3567 39.4287 23.2459 39.316 23.1564C39.2032 23.0669 39.0739 23.0004 38.9355 22.9609C38.7971 22.9213 38.6522 22.9094 38.5092 22.9259C38.3662 22.9423 38.2278 22.9867 38.1019 23.0567C37.9761 23.1266 37.8652 23.2206 37.7757 23.3334C37.6862 23.4461 37.6198 23.5754 37.5802 23.7138C37.5406 23.8523 37.5288 23.9971 37.5452 24.1402C37.5616 24.2832 37.6061 24.4216 37.676 24.5474C38.579 26.1757 39.1236 27.9782 39.2732 29.834H36.7677C36.477 29.834 36.1982 29.9495 35.9926 30.1551C35.7871 30.3607 35.6716 30.6395 35.6716 30.9302C35.6716 31.2209 35.7871 31.4997 35.9926 31.7053C36.1982 31.9108 36.477 32.0263 36.7677 32.0263H39.2732C39.0214 35.107 37.6845 37.9984 35.5006 40.1858C33.3167 42.3732 30.4274 43.7146 27.3471 43.9713V41.4658C27.3471 41.1751 27.2316 40.8963 27.026 40.6907C26.8205 40.4851 26.5416 40.3696 26.2509 40.3696C25.9602 40.3696 25.6814 40.4851 25.4758 40.6907C25.2703 40.8963 25.1548 41.1751 25.1548 41.4658V43.9713C22.0679 43.7214 19.1704 42.3822 16.9799 40.1929C14.7895 38.0036 13.4488 35.1068 13.1973 32.0201H15.7341C16.0248 32.0201 16.3036 31.9046 16.5092 31.699C16.7148 31.4934 16.8303 31.2146 16.8303 30.9239C16.8303 30.6332 16.7148 30.3544 16.5092 30.1488C16.3036 29.9433 16.0248 29.8278 15.7341 29.8278H13.1973C13.4465 26.745 14.7879 23.8525 16.9799 21.6707C19.172 19.489 22.0709 18.1613 25.1548 17.9267V20.4322C25.1548 20.7229 25.2703 21.0017 25.4758 21.2073C25.6814 21.4128 25.9602 21.5283 26.2509 21.5283C26.5416 21.5283 26.8205 21.4128 27.026 21.2073C27.2316 21.0017 27.3471 20.7229 27.3471 20.4322V17.9267C29.9874 18.1375 32.5005 19.1493 34.5504 20.8268L30.5917 24.7855C29.2089 23.8262 27.5442 23.3588 25.8642 23.458C24.1842 23.5572 22.5861 24.2174 21.3259 25.3327C20.0656 26.448 19.2162 27.9541 18.9135 29.6095C18.6108 31.265 18.8724 32.9742 19.6565 34.4633C20.4406 35.9524 21.7017 37.1353 23.2379 37.8226C24.7741 38.5098 26.4965 38.6617 28.1292 38.2538C29.762 37.8459 31.2106 36.9018 32.2431 35.5728C33.2756 34.2439 33.8322 32.6068 33.8238 30.9239C33.8263 29.2316 33.2543 27.5886 32.2015 26.2637L43.9209 14.5255L47.5351 15.7281C47.6455 15.7681 47.7623 15.7872 47.8796 15.7845C48.0239 15.7863 48.1671 15.7589 48.3006 15.704C48.4341 15.6491 48.555 15.5678 48.6563 15.465L55.7469 8.38699C55.8794 8.25507 55.976 8.09145 56.0274 7.91167C56.0788 7.7319 56.0834 7.54196 56.0407 7.35991C55.998 7.17786 55.9095 7.00976 55.7835 6.87159C55.6575 6.73342 55.4983 6.62977 55.3209 6.57051L52.734 5.71238L53.6986 4.74776C53.8002 4.64577 53.8807 4.52476 53.9355 4.39165C53.9904 4.25854 54.0184 4.11593 54.0181 3.97198C54.0178 3.82802 53.9892 3.68553 53.9338 3.55264C53.8785 3.41976 53.7975 3.29908 53.6955 3.19749C53.5935 3.0959 53.4725 3.0154 53.3394 2.96058C53.2063 2.90576 53.0637 2.87769 52.9197 2.87798C52.7757 2.87827 52.6333 2.90691 52.5004 2.96227C52.3675 3.01763 52.2468 3.09862 52.1452 3.20062L51.1618 4.18403L50.2786 1.54073C50.2194 1.36338 50.1157 1.20415 49.9775 1.07816C49.8394 0.952173 49.6713 0.863626 49.4892 0.820938C49.3072 0.778251 49.1172 0.782843 48.9375 0.834278C48.7577 0.885712 48.5941 0.982279 48.4621 1.1148L41.3841 8.19282C41.24 8.33787 41.1391 8.52013 41.0927 8.71924C41.0462 8.91835 41.056 9.12645 41.121 9.32029L42.3738 12.9971L41.2275 14.1434C37.3934 10.729 32.5009 8.73839 27.3721 8.506V7.01524C27.3721 6.72452 27.2566 6.44571 27.0511 6.24014C26.8455 6.03457 26.5667 5.91908 26.276 5.91908C25.9853 5.91908 25.7065 6.03457 25.5009 6.24014C25.2953 6.44571 25.1798 6.72452 25.1798 7.01524V8.5248C19.6042 8.76755 14.3212 11.0876 10.3697 15.0286C6.41824 18.9697 4.08425 24.2466 3.82675 29.8215H2.34225C2.05153 29.8215 1.77272 29.937 1.56715 30.1426C1.36158 30.3481 1.24609 30.6269 1.24609 30.9177C1.24609 31.2084 1.36158 31.4872 1.56715 31.6927C1.77272 31.8983 2.05153 32.0138 2.34225 32.0138V32.0201ZM37.0684 41.7414C39.6649 39.1385 41.237 35.6874 41.4969 32.0201H46.5079C46.2452 37.0155 44.1418 41.7366 40.6035 45.2726C37.0652 48.8086 32.3427 50.9089 27.3471 51.1683V46.1573C31.0144 45.9075 34.4675 44.3389 37.0684 41.7414ZM15.4272 41.7414C18.0301 44.3407 21.4849 45.9113 25.1548 46.1636V51.1746C20.1593 50.9135 15.4375 48.8117 11.9003 45.2745C8.36315 41.7374 6.2613 37.0156 6.00027 32.0201H11.0113C11.2622 35.6871 12.8306 39.1398 15.4272 41.7414ZM31.6127 30.9239C31.6186 31.6266 31.4849 32.3234 31.2193 32.9739C30.9537 33.6244 30.5615 34.2157 30.0655 34.7135C29.3562 35.4263 28.4608 35.9252 27.4815 36.1534C26.5021 36.3815 25.4784 36.3297 24.5271 36.0037C23.5758 35.6778 22.7354 35.091 22.1017 34.3102C21.468 33.5294 21.0667 32.5861 20.9436 31.5881C20.8204 30.5902 20.9804 29.5776 21.4052 28.6662C21.83 27.7548 22.5026 26.9812 23.3461 26.4338C24.1896 25.8864 25.17 25.5872 26.1754 25.5704C27.1808 25.5536 28.1707 25.8199 29.032 26.3389L25.7185 29.6273C25.6164 29.7286 25.5354 29.8491 25.4801 29.9819C25.4248 30.1147 25.3964 30.2571 25.3964 30.4009C25.3964 30.5447 25.4248 30.6871 25.4801 30.8199C25.5354 30.9526 25.6164 31.0732 25.7185 31.1745C25.8144 31.2857 25.9331 31.375 26.0666 31.4362C26.2001 31.4974 26.3452 31.5291 26.4921 31.5291C26.6389 31.5291 26.7841 31.4974 26.9176 31.4362C27.0511 31.375 27.1698 31.2857 27.2657 31.1745L30.6168 27.8234C31.2659 28.7267 31.6144 29.8115 31.6127 30.9239ZM52.9094 8.0926L47.604 13.4356L45.6685 12.8092L51.0177 7.46622L52.9094 8.0926ZM48.7628 3.91469L49.3892 5.88776L44.0462 11.2307L43.4198 9.26392L48.7628 3.91469ZM39.6491 15.6968L36.1038 19.242C33.6301 17.162 30.559 15.9226 27.3346 15.703V10.692C31.8873 10.9194 36.2285 12.6837 39.6491 15.6968ZM11.9007 16.58C15.4422 13.0537 20.1635 10.9631 25.1548 10.7108V15.7218C21.487 15.958 18.0299 17.5188 15.427 20.1136C12.824 22.7085 11.2526 26.1607 11.005 29.8278H5.99401C6.25432 24.8327 8.35911 20.112 11.9007 16.58Z" fill="white"/>
</svg>
