<svg width="57" height="57" viewBox="0 0 57 57" fill="none" xmlns="http://www.w3.org/2000/svg">
<g clip-path="url(#clip0_173_1804)">
<path d="M56.9854 28.5C56.9854 28.085 56.7545 27.7045 56.3863 27.5129L45.6526 21.9279L56.3863 16.3428C56.7545 16.1512 56.9854 15.7707 56.9854 15.3557C56.9854 14.9408 56.7545 14.5603 56.3863 14.3686L47.1411 9.55809C46.5955 9.27446 45.924 9.48643 45.6404 10.0316C45.3567 10.5767 45.5686 11.2487 46.1138 11.5323L53.462 15.3556L28.4995 28.3442L3.53713 15.3556L28.4995 2.36708L37.2308 6.91013C37.7764 7.19377 38.4479 6.98168 38.7315 6.43667C39.0152 5.89154 38.8032 5.21956 38.2581 4.93593L29.0132 0.125599C28.691 -0.0418664 28.3079 -0.0418664 27.9859 0.125599L0.612765 14.3685C0.244563 14.56 0.0136719 14.9406 0.0136719 15.3556C0.0136719 15.7707 0.244563 16.1511 0.612765 16.3427L11.3465 21.9277L0.612765 27.5129C0.244563 27.7045 0.0136719 28.085 0.0136719 28.5C0.0136719 28.9149 0.244563 29.2955 0.612765 29.4871L11.3465 35.0721L0.612765 40.6572C0.244563 40.8488 0.0136719 41.2294 0.0136719 41.6443C0.0136719 42.0592 0.244563 42.4398 0.612765 42.6314L27.9859 56.8743C28.1469 56.958 28.3232 57 28.4995 57C28.6759 57 28.8522 56.9581 29.0132 56.8743L56.3863 42.6314C56.7545 42.4398 56.9854 42.0592 56.9854 41.6443C56.9854 41.2294 56.7545 40.8488 56.3863 40.6572L45.6526 35.0721L56.3863 29.4871C56.7545 29.2955 56.9854 28.9149 56.9854 28.5ZM29.0132 30.5857L43.2418 23.1821L46.5592 24.9083L21.6366 37.9176L17.1965 35.6073L27.4166 30.2896L27.9858 30.5857C28.1468 30.6693 28.3231 30.7113 28.4994 30.7113C28.6758 30.7113 28.8522 30.6693 29.0132 30.5857ZM25.0059 29.0351L14.7857 34.3528L10.3668 32.0536L20.587 26.7359L25.0059 29.0351ZM13.7573 23.1821L18.1762 25.4815L7.956 30.7992L3.53702 28.4999L13.7573 23.1821ZM53.462 41.6443L28.4995 54.6329L3.53713 41.6443L13.7573 36.3266L27.9859 43.7301C28.1469 43.8138 28.3232 43.8557 28.4995 43.8557C28.6759 43.8557 28.8522 43.8139 29.0132 43.7301L43.2418 36.3266L53.462 41.6443ZM28.4995 41.4885L24.045 39.1707L48.9677 26.1616L53.462 28.5L28.4995 41.4885Z" fill="white"/>
<path d="M42.186 9.34704C42.4786 9.34704 42.7657 9.22798 42.9726 9.02101C43.1795 8.81404 43.2987 8.52696 43.2987 8.23431C43.2987 7.94166 43.1796 7.65458 42.9726 7.44761C42.7657 7.24064 42.4786 7.12158 42.186 7.12158C41.8933 7.12158 41.6062 7.24064 41.3993 7.44761C41.1923 7.65458 41.0732 7.94166 41.0732 8.23431C41.0732 8.52696 41.1922 8.81404 41.3993 9.02101C41.6063 9.22798 41.8933 9.34704 42.186 9.34704Z" fill="white"/>
</g>
<defs>
<clipPath id="clip0_173_1804">
<rect width="57" height="57" fill="white"/>
</clipPath>
</defs>
</svg>
