<svg width="57" height="57" viewBox="0 0 57 57" fill="none" xmlns="http://www.w3.org/2000/svg">
<path d="M44.4459 37.4042C48.0428 33.5232 50.2455 28.3326 50.2455 22.6363C50.2454 10.6458 40.4903 0.890625 28.4996 0.890625C16.5089 0.890625 6.75391 10.6458 6.75391 22.6363C6.75391 28.7715 9.30866 34.3206 13.4091 38.2779L8.04965 49.7894C7.9096 50.0902 7.94835 50.4439 8.15018 50.7072C8.35202 50.9704 8.68345 51.0998 9.01031 51.0427L15.5873 49.8935L18.9419 55.6663C19.1018 55.9415 19.3957 56.1094 19.7118 56.1094C19.7253 56.1094 19.7389 56.109 19.7524 56.1085C20.0838 56.0933 20.3794 55.8954 20.5194 55.5947L25.8167 44.2165C26.6961 44.3252 27.5913 44.3821 28.4996 44.3821C29.8061 44.3821 31.0859 44.2661 32.3295 44.0442L36.3277 53.3268C36.4589 53.6314 36.7487 53.8381 37.0795 53.8625C37.1016 53.8643 37.1238 53.865 37.1458 53.865C37.4522 53.865 37.7392 53.7069 37.9024 53.444L41.4229 47.7709L47.9637 49.1104C48.2888 49.1776 48.6239 49.0574 48.8332 48.8C49.0426 48.5427 49.0915 48.1903 48.9604 47.8857L44.4459 37.4042ZM19.6248 53.296L16.8156 48.4618C16.6283 48.1394 16.2603 47.9684 15.8923 48.032L10.3847 48.9944L14.8 39.5107C17.4282 41.6484 20.5629 43.1856 23.994 43.9114L19.6248 53.296ZM8.53516 22.6363C8.53516 11.6279 17.4912 2.67188 28.4996 2.67188C39.5081 2.67188 48.4641 11.6279 48.4641 22.6363C48.4641 33.6448 39.5081 42.6008 28.4996 42.6008C17.4912 42.6008 8.53516 33.6448 8.53516 22.6363ZM41.1721 45.9016C40.8067 45.8263 40.4333 45.9874 40.2367 46.3045L37.2886 51.0551L34.0992 43.6499C37.4903 42.7454 40.5581 41.041 43.0862 38.7503L46.6493 47.0233L41.1721 45.9016ZM43.4677 28.7653C43.4251 28.4088 43.3853 28.0916 43.3496 27.8069C43.2044 26.6497 43.1316 26.0692 43.2126 25.6098C43.2937 25.1506 43.5607 24.6297 44.0928 23.5921C44.2237 23.3367 44.3696 23.0523 44.5314 22.732C45.3756 21.0619 45.0261 19.0794 43.6616 17.7988C43.3999 17.5531 43.1656 17.3358 42.9551 17.1405C42.1003 16.3474 41.6711 15.9494 41.438 15.5455C41.2048 15.1417 41.0746 14.5711 40.8153 13.4342C40.7514 13.1543 40.6804 12.8428 40.5984 12.4932C40.1717 10.6712 38.6295 9.37728 36.7611 9.2733C36.4027 9.25326 36.0835 9.23745 35.7969 9.2232C34.6321 9.1652 34.0476 9.13614 33.6093 8.97661C33.1711 8.81697 32.7045 8.46361 31.775 7.75935C31.5462 7.5859 31.2915 7.39297 31.0042 7.17788C29.506 6.05658 27.4931 6.05658 25.9949 7.17788C25.7074 7.39297 25.4527 7.58601 25.2239 7.75935C24.2944 8.4635 23.8279 8.81697 23.3897 8.97661C22.9514 9.13614 22.3668 9.16509 21.2022 9.2232C20.9155 9.23745 20.5963 9.25337 20.238 9.2733C18.3695 9.37728 16.8274 10.6712 16.4006 12.4932C16.3188 12.8427 16.2476 13.1543 16.1838 13.4341C15.9244 14.571 15.7942 15.1416 15.5611 15.5455C15.328 15.9494 14.8988 16.3474 14.044 17.1404C13.8335 17.3357 13.5991 17.5531 13.3374 17.7988C11.973 19.0794 11.6234 21.0619 12.4676 22.732C12.6296 23.0523 12.7753 23.3367 12.9062 23.5921C13.4384 24.6297 13.7055 25.1506 13.7864 25.6098C13.8674 26.0692 13.7945 26.6498 13.6495 27.8069C13.6137 28.0918 13.574 28.4088 13.5313 28.7653C13.3092 30.6232 14.3158 32.3666 16.036 33.1034C16.366 33.2448 16.6606 33.3689 16.9251 33.4804C17.9996 33.9331 18.539 34.1605 18.8962 34.4603C19.2535 34.7601 19.571 35.2517 20.2036 36.2314C20.3592 36.4725 20.5327 36.741 20.7291 37.0414C21.5204 38.2512 22.8291 38.9373 24.2095 38.9372C24.6159 38.9372 25.0289 38.8777 25.4363 38.7545C25.7799 38.6507 26.0853 38.5565 26.3595 38.4719C27.4737 38.128 28.0331 37.9554 28.4994 37.9554C28.9658 37.9554 29.5251 38.128 30.6395 38.4719C30.9137 38.5565 31.2192 38.6507 31.5626 38.7545C33.3538 39.2959 35.2456 38.6075 36.2698 37.0413C36.4663 36.7408 36.6396 36.4724 36.7954 36.2313C37.4279 35.2516 37.7454 34.7599 38.1027 34.4602C38.4599 34.1605 38.9993 33.9331 40.0739 33.4803C40.3384 33.3688 40.6329 33.2447 40.9629 33.1033C42.6833 32.3666 43.6898 30.6232 43.4677 28.7653ZM42.5078 22.7792C41.2828 25.1683 41.2481 25.3646 41.5822 28.0284C41.6175 28.3101 41.6569 28.6239 41.699 28.9766C41.8285 30.0595 41.2643 31.0366 40.2618 31.466C39.9353 31.6058 39.6439 31.7285 39.3822 31.8388C36.9081 32.8814 36.7555 33.0096 35.2991 35.265C35.1451 35.5035 34.9736 35.7692 34.7792 36.0663C34.1824 36.979 33.1221 37.3649 32.078 37.0493C31.7382 36.9466 31.436 36.8534 31.1647 36.7697C28.5993 35.978 28.4 35.9779 25.8344 36.7697C25.5631 36.8534 25.261 36.9466 24.9211 37.0493C23.877 37.3652 22.8169 36.979 22.2199 36.0663C22.0256 35.7692 21.854 35.5034 21.7 35.265C20.2436 33.0095 20.091 32.8814 17.617 31.8388C17.3552 31.7286 17.0639 31.6058 16.7374 31.466C15.7349 31.0366 15.1706 30.0594 15.3001 28.9766C15.3422 28.6239 15.3816 28.3102 15.417 28.0284C15.7511 25.3644 15.7165 25.1683 14.4914 22.7792C14.3618 22.5265 14.2177 22.2451 14.0575 21.9282C13.5655 20.955 13.7613 19.8438 14.5566 19.0975C14.8156 18.8543 15.0474 18.6393 15.2556 18.4462C17.2238 16.6203 17.3234 16.4477 17.9206 13.8301C17.9837 13.5533 18.054 13.245 18.135 12.8993C18.3837 11.8374 19.248 11.1121 20.3369 11.0515C20.6915 11.0318 21.0072 11.0161 21.2908 11.002C23.9724 10.8685 24.1596 10.8003 26.2997 9.179C26.526 9.00756 26.7781 8.81663 27.0624 8.60377C27.4989 8.27702 27.9993 8.1137 28.4996 8.1137C28.9999 8.1137 29.5002 8.27713 29.9369 8.60377C30.2212 8.81652 30.4731 9.00756 30.6995 9.179C32.8395 10.8003 33.0268 10.8685 35.7084 11.002C35.9919 11.0161 36.3077 11.0319 36.6622 11.0515C37.7511 11.1121 38.6155 11.8374 38.8642 12.8993C38.9452 13.245 39.0155 13.5534 39.0787 13.8302C39.6759 16.4477 39.7755 16.6203 41.7438 18.4462C41.952 18.6393 42.1837 18.8544 42.4427 19.0975C43.2379 19.8438 43.4337 20.955 42.9418 21.9282C42.7817 22.2451 42.6374 22.5266 42.5078 22.7792ZM36.1404 19.6668L31.3776 19.4346L29.6851 14.9766C29.4968 14.4807 29.0314 14.1602 28.4996 14.1602C27.9677 14.1602 27.5024 14.4807 27.3142 14.9766L25.6217 19.4346L20.859 19.6668C20.3281 19.6925 19.8789 20.0357 19.7146 20.5413C19.5503 21.0468 19.7118 21.5885 20.1261 21.9216L23.8428 24.9089L22.5918 29.5103C22.4524 30.0231 22.6402 30.5563 23.0702 30.8687C23.2939 31.0313 23.5541 31.113 23.8149 31.113C24.0555 31.113 24.2967 31.0434 24.5099 30.9038L28.4996 28.2924L32.4893 30.904C32.9341 31.1951 33.4992 31.1811 33.9292 30.8689C34.3592 30.5565 34.5469 30.0232 34.4074 29.5105L33.1565 24.9091L36.8733 21.9218C37.2875 21.5888 37.449 21.047 37.2846 20.5415C37.1203 20.0359 36.6711 19.6926 36.1404 19.6668ZM28.0198 15.609L28.0203 15.6101C28.0201 15.6096 28.0199 15.6093 28.0198 15.609C28.0198 15.6089 28.0198 15.6089 28.0198 15.609ZM31.7787 23.7311C31.3855 24.0471 31.217 24.5657 31.3494 25.0521L32.3339 28.6733L29.1941 26.6181C28.7722 26.3418 28.2269 26.3419 27.8051 26.618L24.6652 28.6733L25.6499 25.0516C25.7819 24.5651 25.6132 24.0468 25.2205 23.7311L22.2954 21.3801L26.0434 21.1973C26.5472 21.1731 26.9885 20.8526 27.1676 20.381L28.4996 16.8727L29.8317 20.3812C30.0108 20.8528 30.4521 21.1732 30.9554 21.1974L34.7037 21.3802L31.7787 23.7311Z" fill="white"/>
</svg>
