<svg width="61" height="51" viewBox="0 0 61 51" fill="none" xmlns="http://www.w3.org/2000/svg">
<path d="M21.7443 8.36364V20H19.6193L14.5568 12.6761H14.4716V20H12.0114V8.36364H14.1705L19.1932 15.6818H19.2955V8.36364H21.7443ZM27.7088 20.1705C26.8111 20.1705 26.0384 19.9886 25.3906 19.625C24.7467 19.2576 24.2505 18.7386 23.902 18.0682C23.5535 17.3939 23.3793 16.5966 23.3793 15.6761C23.3793 14.7784 23.5535 13.9905 23.902 13.3125C24.2505 12.6345 24.741 12.1061 25.3736 11.7273C26.0099 11.3485 26.7562 11.1591 27.6122 11.1591C28.188 11.1591 28.724 11.2519 29.2202 11.4375C29.7202 11.6193 30.1558 11.8939 30.527 12.2614C30.902 12.6288 31.1937 13.0909 31.402 13.6477C31.6103 14.2008 31.7145 14.8485 31.7145 15.5909V16.2557H24.3452V14.7557H29.4361C29.4361 14.4072 29.3603 14.0985 29.2088 13.8295C29.0573 13.5606 28.8471 13.3504 28.5781 13.1989C28.313 13.0436 28.0043 12.9659 27.652 12.9659C27.2846 12.9659 26.9588 13.0511 26.6747 13.2216C26.3944 13.3883 26.1747 13.6136 26.0156 13.8977C25.8565 14.178 25.7751 14.4905 25.7713 14.8352V16.2614C25.7713 16.6932 25.8509 17.0663 26.0099 17.3807C26.1728 17.6951 26.402 17.9375 26.6974 18.108C26.9929 18.2784 27.3433 18.3636 27.7486 18.3636C28.0175 18.3636 28.2637 18.3258 28.4872 18.25C28.7107 18.1742 28.902 18.0606 29.0611 17.9091C29.2202 17.7576 29.3414 17.572 29.4247 17.3523L31.6634 17.5C31.5497 18.0379 31.3168 18.5076 30.9645 18.9091C30.616 19.3068 30.1652 19.6174 29.6122 19.8409C29.063 20.0606 28.4285 20.1705 27.7088 20.1705ZM35.1605 11.2727L36.7628 14.3239L38.4048 11.2727H40.8878L38.3594 15.6364L40.956 20H38.4844L36.7628 16.983L35.0696 20H32.5696L35.1605 15.6364L32.6605 11.2727H35.1605ZM46.9673 11.2727V13.0909H41.7116V11.2727H46.9673ZM42.9048 9.18182H45.3253V17.3182C45.3253 17.5417 45.3594 17.7159 45.4276 17.8409C45.4957 17.9621 45.5904 18.0473 45.7116 18.0966C45.8366 18.1458 45.9806 18.1705 46.1435 18.1705C46.2571 18.1705 46.3707 18.161 46.4844 18.142C46.598 18.1193 46.6851 18.1023 46.7457 18.0909L47.1264 19.892C47.0052 19.9299 46.8348 19.9735 46.6151 20.0227C46.3954 20.0758 46.1283 20.108 45.8139 20.1193C45.2306 20.142 44.7192 20.0644 44.2798 19.8864C43.8442 19.7083 43.5052 19.4318 43.2628 19.0568C43.0204 18.6818 42.901 18.2083 42.9048 17.6364V9.18182Z" fill="#444444"/>
<path d="M60.3536 47.3536C60.5488 47.1583 60.5488 46.8417 60.3536 46.6464L57.1716 43.4645C56.9763 43.2692 56.6597 43.2692 56.4645 43.4645C56.2692 43.6597 56.2692 43.9763 56.4645 44.1716L59.2929 47L56.4645 49.8284C56.2692 50.0237 56.2692 50.3403 56.4645 50.5355C56.6597 50.7308 56.9763 50.7308 57.1716 50.5355L60.3536 47.3536ZM0 47V47.5H60V47V46.5H0V47Z" fill="#444444"/>
</svg>
