<svg width="61" height="50" viewBox="0 0 61 50" fill="none" xmlns="http://www.w3.org/2000/svg">
<path d="M8.51136 20V8.36364H13.1023C13.9848 8.36364 14.7367 8.5322 15.358 8.86932C15.9792 9.20265 16.4527 9.66667 16.7784 10.2614C17.108 10.8523 17.2727 11.5341 17.2727 12.3068C17.2727 13.0795 17.1061 13.7614 16.7727 14.3523C16.4394 14.9432 15.9564 15.4034 15.3239 15.733C14.6951 16.0625 13.9337 16.2273 13.0398 16.2273H10.1136V14.2557H12.642C13.1155 14.2557 13.5057 14.1742 13.8125 14.0114C14.1231 13.8447 14.3542 13.6155 14.5057 13.3239C14.661 13.0284 14.7386 12.6894 14.7386 12.3068C14.7386 11.9205 14.661 11.5833 14.5057 11.2955C14.3542 11.0038 14.1231 10.7784 13.8125 10.6193C13.5019 10.4564 13.108 10.375 12.6307 10.375H10.9716V20H8.51136ZM18.8253 20V11.2727H21.1719V12.7955H21.2628C21.4219 12.2538 21.6889 11.8447 22.0639 11.5682C22.4389 11.2879 22.8707 11.1477 23.3594 11.1477C23.4806 11.1477 23.6113 11.1553 23.7514 11.1705C23.8916 11.1856 24.0147 11.2064 24.1207 11.233V13.3807C24.0071 13.3466 23.8499 13.3163 23.6491 13.2898C23.4484 13.2633 23.2647 13.25 23.098 13.25C22.742 13.25 22.4238 13.3277 22.1435 13.483C21.867 13.6345 21.6473 13.8466 21.4844 14.1193C21.3253 14.392 21.2457 14.7064 21.2457 15.0625V20H18.8253ZM28.9432 20.1705C28.0455 20.1705 27.2727 19.9886 26.625 19.625C25.9811 19.2576 25.4848 18.7386 25.1364 18.0682C24.7879 17.3939 24.6136 16.5966 24.6136 15.6761C24.6136 14.7784 24.7879 13.9905 25.1364 13.3125C25.4848 12.6345 25.9754 12.1061 26.608 11.7273C27.2443 11.3485 27.9905 11.1591 28.8466 11.1591C29.4223 11.1591 29.9583 11.2519 30.4545 11.4375C30.9545 11.6193 31.3902 11.8939 31.7614 12.2614C32.1364 12.6288 32.428 13.0909 32.6364 13.6477C32.8447 14.2008 32.9489 14.8485 32.9489 15.5909V16.2557H25.5795V14.7557H30.6705C30.6705 14.4072 30.5947 14.0985 30.4432 13.8295C30.2917 13.5606 30.0814 13.3504 29.8125 13.1989C29.5473 13.0436 29.2386 12.9659 28.8864 12.9659C28.5189 12.9659 28.1932 13.0511 27.9091 13.2216C27.6288 13.3883 27.4091 13.6136 27.25 13.8977C27.0909 14.178 27.0095 14.4905 27.0057 14.8352V16.2614C27.0057 16.6932 27.0852 17.0663 27.2443 17.3807C27.4072 17.6951 27.6364 17.9375 27.9318 18.108C28.2273 18.2784 28.5777 18.3636 28.983 18.3636C29.2519 18.3636 29.4981 18.3258 29.7216 18.25C29.9451 18.1742 30.1364 18.0606 30.2955 17.9091C30.4545 17.7576 30.5758 17.572 30.6591 17.3523L32.8977 17.5C32.7841 18.0379 32.5511 18.5076 32.1989 18.9091C31.8504 19.3068 31.3996 19.6174 30.8466 19.8409C30.2973 20.0606 29.6629 20.1705 28.9432 20.1705ZM42.4304 11.2727L39.3793 20H36.652L33.6009 11.2727H36.1577L37.9702 17.517H38.0611L39.8679 11.2727H42.4304Z" fill="#444444"/>
<path d="M0.146446 46.3536C-0.0488167 46.1583 -0.0488167 45.8417 0.146446 45.6464L3.32843 42.4645C3.52369 42.2692 3.84027 42.2692 4.03553 42.4645C4.2308 42.6597 4.2308 42.9763 4.03553 43.1716L1.20711 46L4.03553 48.8284C4.2308 49.0237 4.2308 49.3403 4.03553 49.5355C3.84027 49.7308 3.52369 49.7308 3.32843 49.5355L0.146446 46.3536ZM60.5 46V46.5H0.5V46V45.5H60.5V46Z" fill="#444444"/>
</svg>
