<svg width="37" height="37" viewBox="0 0 37 37" fill="none" xmlns="http://www.w3.org/2000/svg">
<g clip-path="url(#clip0_460_8511)">
<path d="M31.7667 28.7428C31.1397 28.7432 30.5267 28.5577 30.0051 28.2097C29.4836 27.8617 29.0769 27.3668 28.8367 26.7877C28.5964 26.2086 28.5333 25.5712 28.6554 24.9562C28.7774 24.3412 29.0791 23.7762 29.5223 23.3326C29.9655 22.8891 30.5303 22.587 31.1452 22.4645C31.7601 22.342 32.3975 22.4047 32.9768 22.6445C33.5562 22.8843 34.0513 23.2906 34.3997 23.8119C34.7481 24.3332 34.9341 24.9461 34.9341 25.5731C34.9337 26.4132 34.5999 27.2189 34.0061 27.8131C33.4122 28.4074 32.6068 28.7418 31.7667 28.7428ZM31.7667 23.5597C31.3684 23.5592 30.9789 23.6769 30.6475 23.8979C30.3161 24.1188 30.0577 24.4331 29.9049 24.801C29.7522 25.1689 29.712 25.5738 29.7894 25.9645C29.8668 26.3552 30.0584 26.7142 30.3399 26.996C30.6214 27.2778 30.9801 27.4698 31.3707 27.5477C31.7614 27.6255 32.1663 27.5858 32.5344 27.4335C32.9024 27.2812 33.217 27.0231 33.4383 26.6919C33.6597 26.3608 33.7778 25.9714 33.7778 25.5731C33.7776 25.0396 33.5657 24.5279 33.1887 24.1505C32.8116 23.773 32.3002 23.5605 31.7667 23.5597Z" fill="black"/>
<path d="M15.0634 28.7428C14.4363 28.7434 13.8232 28.558 13.3016 28.2101C12.7799 27.8622 12.3732 27.3674 12.1328 26.7882C11.8924 26.2091 11.8292 25.5717 11.9512 24.9566C12.0731 24.3416 12.3747 23.7765 12.8179 23.3329C13.2611 22.8893 13.8258 22.5871 14.4408 22.4646C15.0557 22.342 15.6932 22.4046 16.2726 22.6444C16.8519 22.8842 17.3471 23.2905 17.6956 23.8118C18.044 24.3331 18.23 24.9461 18.23 25.5731C18.2293 26.413 17.8956 27.2184 17.302 27.8126C16.7084 28.4068 15.9033 28.7413 15.0634 28.7428ZM15.0634 23.5597C14.665 23.5591 14.2755 23.6766 13.9439 23.8975C13.6124 24.1184 13.3539 24.4326 13.201 24.8005C13.0482 25.1683 13.0078 25.5732 13.0852 25.964C13.1625 26.3548 13.354 26.7138 13.6355 26.9957C13.917 27.2776 14.2757 27.4697 14.6664 27.5476C15.057 27.6255 15.462 27.5859 15.8301 27.4336C16.1982 27.2813 16.5128 27.0232 16.7342 26.692C16.9555 26.3609 17.0737 25.9715 17.0737 25.5731C17.0733 25.0398 16.8615 24.5284 16.4846 24.1509C16.1078 23.7735 15.5967 23.5609 15.0634 23.5597Z" fill="black"/>
<path d="M35.9371 26.1513H34.3562C34.2028 26.1513 34.0558 26.0904 33.9474 25.982C33.8389 25.8736 33.778 25.7265 33.778 25.5732C33.778 25.4199 33.8389 25.2728 33.9474 25.1644C34.0558 25.056 34.2028 24.9951 34.3562 24.9951H35.7737V21.9295C35.7733 21.515 35.6672 21.1075 35.4654 20.7455L32.3358 15.1346C32.3091 15.0867 32.27 15.0468 32.2227 15.019C32.1755 14.9913 32.1216 14.9766 32.0668 14.9766H27.8018V24.9974H29.1785C29.3318 24.9974 29.4788 25.0583 29.5873 25.1667C29.6957 25.2751 29.7566 25.4222 29.7566 25.5755C29.7566 25.7288 29.6957 25.8759 29.5873 25.9843C29.4788 26.0927 29.3318 26.1536 29.1785 26.1536H27.2236C27.0703 26.1536 26.9233 26.0927 26.8148 25.9843C26.7064 25.8759 26.6455 25.7288 26.6455 25.5755V14.3984C26.6455 14.2451 26.7064 14.0981 26.8148 13.9896C26.9233 13.8812 27.0703 13.8203 27.2236 13.8203H32.0668C32.3276 13.8202 32.5837 13.8897 32.8087 14.0217C33.0336 14.1537 33.2192 14.3434 33.3464 14.5711L36.4752 20.1828C36.7726 20.7169 36.9289 21.3181 36.9292 21.9295V25.1593C36.9288 25.4223 36.8241 25.6744 36.6382 25.8603C36.4522 26.0463 36.2001 26.1509 35.9371 26.1513Z" fill="black"/>
<path d="M12.4747 26.1512H6.93164C6.77831 26.1512 6.63126 26.0903 6.52284 25.9819C6.41443 25.8735 6.35352 25.7264 6.35352 25.5731V21.127C6.35352 20.9736 6.41443 20.8266 6.52284 20.7182C6.63126 20.6097 6.77831 20.5488 6.93164 20.5488C7.08497 20.5488 7.23202 20.6097 7.34044 20.7182C7.44886 20.8266 7.50977 20.9736 7.50977 21.127V24.995H12.4747C12.628 24.995 12.7751 25.0559 12.8835 25.1643C12.9919 25.2727 13.0528 25.4198 13.0528 25.5731C13.0528 25.7264 12.9919 25.8735 12.8835 25.9819C12.7751 26.0903 12.628 26.1512 12.4747 26.1512Z" fill="black"/>
<path d="M6.93164 19.0758C6.77831 19.0758 6.63126 19.0149 6.52284 18.9064C6.41443 18.798 6.35352 18.651 6.35352 18.4976V14.6157C6.35352 14.4624 6.41443 14.3153 6.52284 14.2069C6.63126 14.0985 6.77831 14.0376 6.93164 14.0376C7.08497 14.0376 7.23202 14.0985 7.34044 14.2069C7.44886 14.3153 7.50977 14.4624 7.50977 14.6157V18.5C7.50915 18.6529 7.44798 18.7993 7.33962 18.9073C7.23127 19.0152 7.08457 19.0758 6.93164 19.0758Z" fill="black"/>
<path d="M27.2238 26.1513H17.6524C17.4991 26.1513 17.352 26.0903 17.2436 25.9819C17.1352 25.8735 17.0743 25.7265 17.0743 25.5731C17.0743 25.4198 17.1352 25.2728 17.2436 25.1643C17.352 25.0559 17.4991 24.995 17.6524 24.995H26.6457V9.87048H7.50977V12.2516C7.50977 12.4049 7.44886 12.552 7.34044 12.6604C7.23202 12.7688 7.08497 12.8297 6.93164 12.8297C6.77831 12.8297 6.63126 12.7688 6.52284 12.6604C6.41443 12.552 6.35352 12.4049 6.35352 12.2516V9.76411C6.35392 9.48566 6.46477 9.21874 6.66174 9.02191C6.85871 8.82509 7.12571 8.71444 7.40416 8.71423H26.7521C27.0304 8.71464 27.2972 8.82538 27.494 9.02218C27.6908 9.21899 27.8015 9.48579 27.802 9.76411V25.5731C27.802 25.7265 27.741 25.8735 27.6326 25.9819C27.5242 26.0903 27.3772 26.1513 27.2238 26.1513Z" fill="black"/>
<path d="M9.21647 21.7051H1.87891C1.72558 21.7051 1.57853 21.6442 1.47011 21.5357C1.36169 21.4273 1.30078 21.2803 1.30078 21.127C1.30078 20.9736 1.36169 20.8266 1.47011 20.7182C1.57853 20.6097 1.72558 20.5488 1.87891 20.5488H9.21647C9.3698 20.5488 9.51685 20.6097 9.62527 20.7182C9.73368 20.8266 9.79459 20.9736 9.79459 21.127C9.79459 21.2803 9.73368 21.4273 9.62527 21.5357C9.51685 21.6442 9.3698 21.7051 9.21647 21.7051Z" fill="black"/>
<path d="M15.0632 19.0758H4.82422C4.67089 19.0758 4.52384 19.0149 4.41542 18.9065C4.307 18.7981 4.24609 18.651 4.24609 18.4977C4.24609 18.3444 4.307 18.1973 4.41542 18.0889C4.52384 17.9805 4.67089 17.9196 4.82422 17.9196H15.0632C15.2165 17.9196 15.3636 17.9805 15.472 18.0889C15.5804 18.1973 15.6413 18.3444 15.6413 18.4977C15.6413 18.651 15.5804 18.7981 15.472 18.9065C15.3636 19.0149 15.2165 19.0758 15.0632 19.0758Z" fill="black"/>
<path d="M4.50613 16.0233H0.507812C0.354484 16.0233 0.207436 15.9624 0.0990164 15.854C-0.00940308 15.7456 -0.0703125 15.5985 -0.0703125 15.4452C-0.0703125 15.2919 -0.00940308 15.1448 0.0990164 15.0364C0.207436 14.928 0.354484 14.8671 0.507812 14.8671H4.50613C4.65945 14.8671 4.8065 14.928 4.91492 15.0364C5.02334 15.1448 5.08425 15.2919 5.08425 15.4452C5.08425 15.5985 5.02334 15.7456 4.91492 15.854C4.8065 15.9624 4.65945 16.0233 4.50613 16.0233Z" fill="black"/>
<path d="M10.9171 12.8297H3.85938C3.70605 12.8297 3.559 12.7688 3.45058 12.6604C3.34216 12.552 3.28125 12.4049 3.28125 12.2516C3.28125 12.0983 3.34216 11.9512 3.45058 11.8428C3.559 11.7344 3.70605 11.6735 3.85938 11.6735H10.9171C11.0705 11.6735 11.2175 11.7344 11.3259 11.8428C11.4343 11.9512 11.4953 12.0983 11.4953 12.2516C11.4953 12.4049 11.4343 12.552 11.3259 12.6604C11.2175 12.7688 11.0705 12.8297 10.9171 12.8297Z" fill="black"/>
</g>
<defs>
<clipPath id="clip0_460_8511">
<rect width="37" height="37" fill="white"/>
</clipPath>
</defs>
</svg>
