<svg width="21" height="22" viewBox="0 0 21 22" fill="none" xmlns="http://www.w3.org/2000/svg">
<path d="M10.5234 5.32812C13.4766 5.32812 15.9141 7.8817 15.9141 10.9754C15.9141 14.1183 13.4766 16.6228 10.5234 16.6228C7.52344 16.6228 5.13281 14.1183 5.13281 10.9754C5.13281 7.8817 7.52344 5.32812 10.5234 5.32812ZM10.5234 14.6585C12.4453 14.6585 13.9922 13.0379 13.9922 10.9754C13.9922 8.96205 12.4453 7.34152 10.5234 7.34152C8.55469 7.34152 7.00781 8.96205 7.00781 10.9754C7.00781 13.0379 8.60156 14.6585 10.5234 14.6585ZM17.3672 5.1317C17.3672 5.8683 16.8047 6.45759 16.1016 6.45759C15.3984 6.45759 14.8359 5.8683 14.8359 5.1317C14.8359 4.39509 15.3984 3.8058 16.1016 3.8058C16.8047 3.8058 17.3672 4.39509 17.3672 5.1317ZM20.9297 6.45759C21.0234 8.27455 21.0234 13.7254 20.9297 15.5424C20.8359 17.3103 20.4609 18.8326 19.2422 20.1585C18.0234 21.4353 16.5234 21.8281 14.8359 21.9263C13.1016 22.0246 7.89844 22.0246 6.16406 21.9263C4.47656 21.8281 3.02344 21.4353 1.75781 20.1585C0.539062 18.8326 0.164062 17.3103 0.0703125 15.5424C-0.0234375 13.7254 -0.0234375 8.27455 0.0703125 6.45759C0.164062 4.68973 0.539062 3.1183 1.75781 1.84152C3.02344 0.564732 4.47656 0.171875 6.16406 0.0736607C7.89844 -0.0245536 13.1016 -0.0245536 14.8359 0.0736607C16.5234 0.171875 18.0234 0.564732 19.2422 1.84152C20.4609 3.1183 20.8359 4.68973 20.9297 6.45759ZM18.6797 17.4576C19.2422 16.0335 19.1016 12.596 19.1016 10.9754C19.1016 9.40402 19.2422 5.96652 18.6797 4.4933C18.3047 3.56027 17.6016 2.77455 16.7109 2.4308C15.3047 1.84152 12.0234 1.98884 10.5234 1.98884C8.97656 1.98884 5.69531 1.84152 4.33594 2.4308C3.39844 2.82366 2.69531 3.56027 2.32031 4.4933C1.75781 5.96652 1.89844 9.40402 1.89844 10.9754C1.89844 12.596 1.75781 16.0335 2.32031 17.4576C2.69531 18.4397 3.39844 19.1763 4.33594 19.5692C5.69531 20.1585 8.97656 20.0112 10.5234 20.0112C12.0234 20.0112 15.3047 20.1585 16.7109 19.5692C17.6016 19.1763 18.3516 18.4397 18.6797 17.4576Z" fill="#646464"/>
</svg>
