<svg width="26" height="26" viewBox="0 0 26 26" fill="none" xmlns="http://www.w3.org/2000/svg">
<g clip-path="url(#clip0_460_8478)">
<path d="M25.786 7.42662L13.2193 0.0599365C13.0871 -0.0172002 12.9246 -0.0197901 12.7907 0.0542998L0.224047 6.98767C0.0858203 7.06348 0 7.20907 0 7.3668V25.5668C0 25.8064 0.194137 26.0001 0.433316 26.0001H2.6C2.83918 26.0001 3.03332 25.8064 3.03332 25.5668V10.4002H22.9666V25.5668C22.9666 25.8065 23.1603 26.0002 23.4 26.0002H25.5666C25.8063 26.0002 26 25.8065 26 25.5668V7.80017C26 7.6463 25.9185 7.50416 25.786 7.42662ZM25.1333 25.1335H23.8333V9.9668C23.8333 9.72762 23.6396 9.53348 23.4 9.53348H2.6C2.36082 9.53348 2.16668 9.72762 2.16668 9.9668V25.1335H0.866684V7.62248L12.9935 0.9318L25.1333 8.04844V25.1335Z" fill="black"/>
<path d="M21.6665 19.9332H16.4665C16.2269 19.9332 16.0332 20.1269 16.0332 20.3665V25.5665C16.0332 25.8062 16.2269 25.9999 16.4665 25.9999H21.6665C21.9062 25.9999 22.0998 25.8062 22.0998 25.5665V20.3665C22.0998 20.1269 21.9062 19.9332 21.6665 19.9332ZM21.2332 25.1332H16.8998V20.7999H21.2332V25.1332Z" fill="black"/>
<path d="M19.5 20.3666V21.6666H18.6333V20.3666H17.7666V22.0999C17.7666 22.3395 17.9603 22.5332 18.1999 22.5332H19.9332C20.1729 22.5332 20.3666 22.3395 20.3666 22.0999V20.3666H19.5Z" fill="black"/>
<path d="M16.4663 19.9332H11.2663C11.0271 19.9332 10.833 20.1269 10.833 20.3665V25.5665C10.833 25.8062 11.0271 25.9999 11.2663 25.9999H16.4663C16.706 25.9999 16.8996 25.8062 16.8996 25.5665V20.3665C16.8996 20.1269 16.706 19.9332 16.4663 19.9332ZM16.033 25.1332H11.6996V20.7999H16.033V25.1332Z" fill="black"/>
<path d="M14.2998 20.3666V21.6666H13.4331V20.3666H12.5664V22.0999C12.5664 22.3395 12.7605 22.5332 12.9997 22.5332H14.733C14.9727 22.5332 15.1664 22.3395 15.1664 22.0999V20.3666H14.2998Z" fill="black"/>
<path d="M21.6665 14.7332H16.4665C16.2269 14.7332 16.0332 14.9268 16.0332 15.1665V20.3665C16.0332 20.6061 16.2269 20.7998 16.4665 20.7998H21.6665C21.9062 20.7998 22.0998 20.6061 22.0998 20.3665V15.1665C22.0998 14.9268 21.9062 14.7332 21.6665 14.7332ZM21.2332 19.9332H16.8998V15.5998H21.2332V19.9332Z" fill="black"/>
<path d="M19.5 15.1665V16.4665H18.6333V15.1665H17.7666V16.8998C17.7666 17.1395 17.9603 17.3331 18.1999 17.3331H19.9332C20.1729 17.3331 20.3666 17.1395 20.3666 16.8998V15.1665H19.5Z" fill="black"/>
<path d="M23.3996 12.9999H2.59961V13.8666H23.3996V12.9999Z" fill="black"/>
<path d="M23.3996 11.2665H2.59961V12.1332H23.3996V11.2665Z" fill="black"/>
<path d="M15.167 6.06653H10.8337C10.5945 6.06653 10.4004 6.26067 10.4004 6.49984V8.23316C10.4004 8.47234 10.5945 8.66648 10.8337 8.66648H15.167C15.4067 8.66648 15.6003 8.47234 15.6003 8.23316V6.49984C15.6003 6.26067 15.4067 6.06653 15.167 6.06653ZM14.7337 7.7999H11.267V6.93321H14.7337V7.7999Z" fill="black"/>
</g>
<defs>
<clipPath id="clip0_460_8478">
<rect width="26" height="26" fill="white"/>
</clipPath>
</defs>
</svg>
