<svg width="141" height="40" viewBox="0 0 141 40" fill="none" xmlns="http://www.w3.org/2000/svg">
<path d="M0.813862 0.264365C2.16577 0.368037 3.18757 0.419873 3.87924 0.419873C4.61284 0.419873 5.54555 0.368037 6.67738 0.264365C6.64594 1.29072 6.60926 2.3741 6.56735 3.5145C6.50447 5.11105 6.46255 6.47434 6.44159 7.60437C6.43111 8.1953 6.42063 8.68257 6.41015 9.06615C8.22318 9.12836 9.63797 9.15946 10.6545 9.15946C11.5244 9.15946 12.9182 9.12836 14.836 9.06615C14.8255 8.68257 14.8098 7.79098 14.7889 6.3914C14.7784 5.96635 14.7417 5.00738 14.6788 3.5145C14.6369 2.3741 14.6002 1.29072 14.5688 0.264365C15.7006 0.368037 16.6333 0.419873 17.3669 0.419873C18.0586 0.419873 19.0804 0.368037 20.4323 0.264365C20.4218 0.803461 20.3747 2.06826 20.2908 4.05878C20.1965 6.45361 20.1493 8.9573 20.1493 11.5698C20.1493 14.0476 20.2437 17.4584 20.4323 21.8023C18.9546 21.6986 17.9538 21.6468 17.4298 21.6468C16.8324 21.6468 15.8788 21.6986 14.5688 21.8023C14.7574 19.4697 14.8465 16.1936 14.836 11.9742L14.3644 11.9586L10.6231 11.9275L6.88174 11.9586L6.41015 11.9742C6.41015 13.4878 6.43111 15.1621 6.47303 16.9971C6.53591 19.2261 6.60402 20.8278 6.67738 21.8023C5.36739 21.6986 4.41372 21.6468 3.81636 21.6468C3.29237 21.6468 2.29153 21.6986 0.813862 21.8023C1.01298 17.4999 1.11254 14.0787 1.11254 11.5387C1.11254 8.9573 1.06014 6.46398 0.955341 4.05878C0.871502 2.04753 0.824342 0.782727 0.813862 0.264365Z" fill="#018C99"/>
<path d="M24.6452 0.264365C26.5002 0.378404 28.2136 0.435424 29.7856 0.435424C32.7095 0.435424 35.099 0.378404 36.9539 0.264365C36.933 1.04191 36.9225 1.5188 36.9225 1.69504C36.9225 1.72615 36.933 2.23932 36.9539 3.23458C34.1453 3.11017 32.196 3.04797 31.1061 3.04797C31.0327 3.04797 30.7341 3.05315 30.2101 3.06352C30.1577 3.8307 30.1315 4.91407 30.1315 6.31365C30.1315 6.83201 30.1367 7.73915 30.1472 9.03505V9.39272C32.9663 9.33052 35.1409 9.23721 36.671 9.11281C36.629 9.93182 36.6081 10.4865 36.6081 10.7767C36.6081 11.15 36.629 11.575 36.671 12.0519C34.1348 11.9171 31.9602 11.8601 30.1472 11.8809V12.2852L30.1158 15.6597V16.3284C30.1158 16.515 30.1262 17.3081 30.1472 18.7077V19.0809C32.61 19.0083 34.8789 18.8891 36.9539 18.7232C36.912 19.48 36.891 20.014 36.891 20.325C36.891 20.6671 36.912 21.1595 36.9539 21.8023C34.9103 21.6986 32.7253 21.6468 30.3987 21.6468C28.0722 21.6468 26.1543 21.6986 24.6452 21.8023C24.6976 21.1388 24.75 19.8222 24.8024 17.8524C24.8863 14.6696 24.9282 12.4873 24.9282 11.3055C24.9282 9.94737 24.881 7.36074 24.7867 3.5456C24.7448 2.16675 24.6976 1.07301 24.6452 0.264365Z" fill="#018C99"/>
<path d="M58.3015 21.4913L58.0972 21.8023C56.5776 21.6986 55.4405 21.6468 54.686 21.6468C53.8266 21.6468 52.7943 21.6986 51.5891 21.8023L51.3219 21.2891C49.97 18.6351 48.8277 16.5928 47.895 15.1621C46.9518 13.721 46.192 12.6377 45.6156 11.912C45.6156 12.1919 45.6156 12.3992 45.6156 12.534C45.6156 13.0524 45.6785 14.9703 45.8042 18.2878L45.93 21.3202L45.9457 21.8023C45.0339 21.6986 44.1746 21.6468 43.3676 21.6468C42.6969 21.6468 41.6018 21.6986 40.0822 21.8023C40.1346 20.9833 40.1922 19.62 40.2551 17.7124C40.3389 15.0377 40.3808 13.2753 40.3808 12.4251C40.3808 9.62598 40.3284 6.81646 40.2237 3.99657L40.1136 0.808645L40.0822 0.264365C41.1197 0.368037 42.0576 0.419873 42.896 0.419873C43.3467 0.419873 44.2741 0.388772 45.6785 0.326568C46.7579 0.274732 47.722 0.248814 48.5709 0.248814C51.0023 0.248814 52.7996 0.663503 53.9628 1.49288C55.2833 2.4363 55.9436 3.84625 55.9436 5.72272C55.9436 7.57845 55.2728 9.0195 53.9314 10.0459C53.1978 10.6057 52.2651 11.01 51.1333 11.2588C52.0031 12.8035 53.114 14.5401 54.4659 16.4684C55.6501 18.1375 56.9287 19.8118 58.3015 21.4913ZM45.6313 10.2014C46.0505 10.2532 46.4435 10.2791 46.8103 10.2791C48.2251 10.2791 49.1997 9.89553 49.7342 9.12836C50.2267 8.40265 50.473 7.45405 50.473 6.28255C50.473 5.13178 50.2215 4.2091 49.7185 3.5145C49.2574 2.87173 48.4399 2.55034 47.2662 2.55034C46.7841 2.55034 46.2549 2.59181 45.6785 2.67475L45.6627 2.98577C45.6313 4.61342 45.6156 5.61386 45.6156 5.98708L45.6313 8.08645V10.2014Z" fill="#018C99"/>
<path d="M60.2036 0.264365C61.5136 0.368037 62.4935 0.419873 63.1433 0.419873C63.7825 0.419873 64.7572 0.368037 66.0672 0.264365L66.0357 1.13521C65.868 5.71753 65.7842 9.10244 65.7842 11.2899C65.7842 14.7111 65.8785 18.2152 66.0672 21.8023C64.7257 21.6986 63.6987 21.6468 62.9861 21.6468C62.221 21.6468 61.2936 21.6986 60.2036 21.8023C60.3923 17.2407 60.4866 13.7159 60.4866 11.2277C60.4866 9.07134 60.4028 5.70717 60.2351 1.13521L60.2036 0.264365Z" fill="#018C99"/>
<path d="M73.3769 21.8023L73.3926 21.258C73.5813 16.7068 73.6756 12.6066 73.6756 8.9573C73.6756 6.33438 73.6546 4.42163 73.6127 3.21903C71.2338 3.23976 69.2845 3.34862 67.7649 3.5456C67.8173 3.0376 67.8435 2.54516 67.8435 2.06826C67.8435 1.57064 67.8173 0.969337 67.7649 0.264365C69.295 0.368037 72.1455 0.419873 76.3165 0.419873C80.4876 0.419873 83.3381 0.368037 84.8682 0.264365C84.8158 0.990072 84.7896 1.59137 84.7896 2.06826C84.7896 2.52442 84.8158 3.01687 84.8682 3.5456C83.3486 3.34862 81.3993 3.23976 79.0204 3.21903C78.968 4.34906 78.9418 6.28773 78.9418 9.03505C78.9418 12.6014 79.0413 16.6757 79.2404 21.258L79.2562 21.8023C78.3339 21.6986 77.354 21.6468 76.3165 21.6468C75.279 21.6468 74.2992 21.6986 73.3769 21.8023Z" fill="#018C99"/>
<path d="M96.328 0.264365L96.6738 1.32182C99.472 10.0096 101.909 16.8364 103.984 21.8023C102.611 21.6986 101.437 21.6468 100.462 21.6468C99.5506 21.6468 98.5812 21.6986 97.5541 21.8023C97.2502 20.4857 96.6424 18.3034 95.7306 15.2554C93.9281 15.1828 92.6495 15.1465 91.895 15.1465C91.3814 15.1465 90.2968 15.1673 88.6409 15.2087C87.6558 17.8213 86.8908 20.0191 86.3458 21.8023C85.5074 21.6986 84.9153 21.6468 84.5695 21.6468C84.1922 21.6468 83.6263 21.6986 82.8717 21.8023C84.056 19.252 85.6489 15.582 87.6506 10.7923C89.6208 6.06484 91.0775 2.55553 92.0207 0.264365C93.0373 0.368037 93.7918 0.419873 94.2844 0.419873C94.8293 0.419873 95.5105 0.368037 96.328 0.264365ZM92.5709 5.4117L92.2408 6.25145L91.109 9.0506L89.9771 11.8653L89.6313 12.6895C90.6059 12.7413 91.5439 12.7673 92.4452 12.7673C93.1578 12.7673 94.0067 12.7465 94.9918 12.7051L94.7874 12.0986L92.7753 6.03373L92.5709 5.4117Z" fill="#018C99"/>
<path d="M123.209 6.43806H122.564C122.313 5.48427 121.983 4.7482 121.574 4.22984C121.061 3.59743 120.379 3.12054 119.531 2.79916C118.661 2.4674 117.744 2.30153 116.78 2.30153C114.453 2.30153 112.729 3.21385 111.608 5.03848C110.549 6.76981 110.02 8.85881 110.02 11.3055C110.02 13.8766 110.528 15.9345 111.545 17.4792C112.058 18.2671 112.802 18.8943 113.777 19.3608C114.584 19.734 115.438 19.9207 116.339 19.9207C117.136 19.9207 117.974 19.734 118.855 19.3608C118.917 18.179 118.949 16.8779 118.949 15.4576C118.949 14.058 118.912 12.6895 118.839 11.3521C120.212 11.4351 121.16 11.4765 121.684 11.4765C122.261 11.4765 123.125 11.4351 124.278 11.3521L124.262 11.8653C124.168 14.2809 124.121 15.8308 124.121 16.515C124.121 17.9457 124.173 19.2986 124.278 20.5738C121.721 21.5794 119.064 22.0822 116.308 22.0822C112.588 22.0822 109.69 21.2166 107.615 19.4852C106.514 18.5625 105.687 17.391 105.131 15.9707C104.565 14.5193 104.282 12.985 104.282 11.3677C104.282 8.90028 104.864 6.74389 106.027 4.89852C107.159 3.13609 108.82 1.82982 111.01 0.979704C112.698 0.326568 114.532 0 116.512 0C119.321 0 121.962 0.720523 124.435 2.16157C123.796 3.84106 123.387 5.26656 123.209 6.43806Z" fill="#018C99"/>
<path d="M128.334 0.264365C130.189 0.378404 131.902 0.435424 133.474 0.435424C136.398 0.435424 138.787 0.378404 140.642 0.264365C140.621 1.04191 140.611 1.5188 140.611 1.69504C140.611 1.72615 140.621 2.23932 140.642 3.23458C137.834 3.11017 135.884 3.04797 134.795 3.04797C134.721 3.04797 134.423 3.05315 133.899 3.06352C133.846 3.8307 133.82 4.91407 133.82 6.31365C133.82 6.83201 133.825 7.73915 133.836 9.03505V9.39272C136.655 9.33052 138.829 9.23721 140.359 9.11281C140.317 9.93182 140.297 10.4865 140.297 10.7767C140.297 11.15 140.317 11.575 140.359 12.0519C137.823 11.9171 135.649 11.8601 133.836 11.8809V12.2852L133.804 15.6597V16.3284C133.804 16.515 133.815 17.3081 133.836 18.7077V19.0809C136.298 19.0083 138.567 18.8891 140.642 18.7232C140.6 19.48 140.579 20.014 140.579 20.325C140.579 20.6671 140.6 21.1595 140.642 21.8023C138.599 21.6986 136.414 21.6468 134.087 21.6468C131.761 21.6468 129.843 21.6986 128.334 21.8023C128.386 21.1388 128.438 19.8222 128.491 17.8524C128.575 14.6696 128.617 12.4873 128.617 11.3055C128.617 9.94737 128.569 7.36074 128.475 3.5456C128.433 2.16675 128.386 1.07301 128.334 0.264365Z" fill="#018C99"/>
<path d="M0 26.6213C1.13826 26.6913 2.18971 26.7263 3.15434 26.7263C4.94855 26.7263 6.41479 26.6913 7.55305 26.6213C7.54019 27.0984 7.53376 27.3911 7.53376 27.4992C7.53376 27.5183 7.54019 27.8332 7.55305 28.4439C5.7717 28.3676 4.57556 28.3294 3.96463 28.3294C3.91961 28.3294 3.73633 28.3326 3.41479 28.339C3.38264 28.8097 3.36656 29.4841 3.36656 30.362C3.36656 30.661 3.36977 31.2081 3.37621 32.0033V32.2228C4.88103 32.2037 6.21543 32.1465 7.37942 32.051C7.3537 32.5536 7.34084 32.894 7.34084 33.0721C7.34084 33.3011 7.3537 33.5619 7.37942 33.8546C6.21543 33.7719 4.88103 33.7369 3.37621 33.7496V33.9977C3.36334 36.5997 3.4373 38.5463 3.59807 39.8378C2.87138 39.7742 2.24759 39.7424 1.72669 39.7424C1.19293 39.7424 0.617363 39.7742 0 39.8378C0.115756 37.2867 0.173633 35.1206 0.173633 33.3393C0.173633 32.5123 0.144695 30.9441 0.0868167 28.6348C0.0610932 27.7696 0.0321543 27.0984 0 26.6213Z" fill="#018C99"/>
<path d="M9.31833 26.6213C10.0257 26.6849 10.6881 26.7167 11.3055 26.7167C11.8585 26.7167 12.3955 26.6849 12.9164 26.6213L12.8971 27.0126C12.7942 29.2964 12.7428 30.96 12.7428 32.0033C12.7428 34.1472 12.746 35.515 12.7524 36.1066C12.7717 37.2199 12.7814 37.9038 12.7814 38.1583C12.9357 38.1646 13.045 38.1678 13.1093 38.1678C13.283 38.1678 13.9968 38.1297 15.2508 38.0533C15.7138 38.0279 16.2154 37.9802 16.7556 37.9102C16.7299 38.1837 16.717 38.4668 16.717 38.7595C16.717 39.033 16.7299 39.3925 16.7556 39.8378C15.8746 39.7742 14.4309 39.7424 12.4244 39.7424C11.0932 39.7424 10.0579 39.7742 9.31833 39.8378C9.33119 39.6342 9.3537 38.8199 9.38585 37.3949C9.43087 35.3782 9.45338 34.1186 9.45338 33.616C9.45338 32.6427 9.44051 31.3163 9.41479 29.6368C9.40836 29.2487 9.38264 28.4567 9.33762 27.2607C9.32476 26.9998 9.31833 26.7867 9.31833 26.6213Z" fill="#018C99"/>
<path d="M24.3762 26.4591C25.8489 26.4591 27.1865 26.7708 28.3891 27.3943C30.5048 28.4885 31.5627 30.4193 31.5627 33.1866C31.5627 34.688 31.2604 35.9158 30.6559 36.87C29.9807 37.9388 29.0611 38.7404 27.8971 39.2748C26.8489 39.7583 25.6399 40 24.2701 40C22.0064 40 20.1961 39.3797 18.8392 38.1392C17.5852 37.0068 16.9582 35.4323 16.9582 33.4156C16.9582 31.2654 17.6077 29.5891 18.9068 28.3867C20.2894 27.1016 22.1125 26.4591 24.3762 26.4591ZM24.2219 27.7855C23.0836 27.7855 22.1929 28.2404 21.5498 29.1501C20.8489 30.1362 20.4984 31.5007 20.4984 33.2439C20.4984 34.987 20.8392 36.3484 21.5209 37.3281C22.1511 38.2251 23.074 38.6736 24.2894 38.6736C25.4727 38.6736 26.3794 38.2219 27.0096 37.3185C27.4212 36.7269 27.6945 36.0812 27.8296 35.3814C27.9582 34.7134 28.0225 33.9977 28.0225 33.2343C28.0225 29.6018 26.7556 27.7855 24.2219 27.7855Z" fill="#018C99"/>
<path d="M40.3891 26.4591C41.8617 26.4591 43.1994 26.7708 44.4019 27.3943C46.5177 28.4885 47.5756 30.4193 47.5756 33.1866C47.5756 34.688 47.2733 35.9158 46.6688 36.87C45.9936 37.9388 45.074 38.7404 43.91 39.2748C42.8617 39.7583 41.6527 40 40.283 40C38.0193 40 36.209 39.3797 34.8521 38.1392C33.5981 37.0068 32.9711 35.4323 32.9711 33.4156C32.9711 31.2654 33.6206 29.5891 34.9196 28.3867C36.3022 27.1016 38.1254 26.4591 40.3891 26.4591ZM40.2347 27.7855C39.0965 27.7855 38.2058 28.2404 37.5627 29.1501C36.8617 30.1362 36.5113 31.5007 36.5113 33.2439C36.5113 34.987 36.8521 36.3484 37.5338 37.3281C38.164 38.2251 39.0868 38.6736 40.3022 38.6736C41.4855 38.6736 42.3923 38.2219 43.0225 37.3185C43.4341 36.7269 43.7074 36.0812 43.8424 35.3814C43.9711 34.7134 44.0354 33.9977 44.0354 33.2343C44.0354 29.6018 42.7685 27.7855 40.2347 27.7855Z" fill="#018C99"/>
<path d="M60.7621 39.6469L60.6367 39.8378C59.7042 39.7742 59.0064 39.7424 58.5434 39.7424C58.0161 39.7424 57.3826 39.7742 56.6431 39.8378L56.4791 39.5229C55.6495 37.8943 54.9486 36.641 54.3762 35.7631C53.7974 34.8788 53.3312 34.214 52.9775 33.7687C52.9775 33.9405 52.9775 34.0677 52.9775 34.1504C52.9775 34.4685 53.0161 35.6454 53.0932 37.6812L53.1704 39.542L53.1801 39.8378C52.6206 39.7742 52.0932 39.7424 51.5981 39.7424C51.1865 39.7424 50.5145 39.7742 49.582 39.8378C49.6141 39.3352 49.6495 38.4986 49.6881 37.3281C49.7395 35.6868 49.7653 34.6053 49.7653 34.0836C49.7653 32.3659 49.7331 30.6419 49.6688 28.9115L49.6013 26.9553L49.582 26.6213C50.2186 26.6849 50.7942 26.7167 51.3087 26.7167C51.5852 26.7167 52.1543 26.6977 53.0161 26.6595C53.6785 26.6277 54.2701 26.6118 54.791 26.6118C56.283 26.6118 57.3858 26.8662 58.0997 27.3752C58.91 27.9541 59.3151 28.8193 59.3151 29.9708C59.3151 31.1095 58.9035 31.9938 58.0804 32.6236C57.6302 32.9671 57.0579 33.2152 56.3633 33.3679C56.8971 34.3158 57.5788 35.3814 58.4084 36.5647C59.135 37.5889 59.9196 38.6163 60.7621 39.6469ZM52.9871 32.719C53.2444 32.7508 53.4855 32.7667 53.7106 32.7667C54.5788 32.7667 55.1768 32.5313 55.5048 32.0606C55.8071 31.6153 55.9582 31.0332 55.9582 30.3143C55.9582 29.6081 55.8039 29.0419 55.4952 28.6157C55.2122 28.2213 54.7106 28.0241 53.9904 28.0241C53.6945 28.0241 53.3698 28.0495 53.0161 28.1004L53.0064 28.2913C52.9871 29.2901 52.9775 29.904 52.9775 30.133L52.9871 31.4212V32.719Z" fill="#018C99"/>
<path d="M77.1318 32.4423H77.4019C77.627 32.7604 77.7942 32.983 77.9035 33.1103C78.0257 33.2439 78.2379 33.4411 78.5402 33.7019C77.9485 34.6498 77.1125 35.6868 76.0322 36.8128C76.7781 37.8497 77.6174 38.7976 78.5498 39.6565V39.8378C77.5723 39.7742 76.8939 39.7424 76.5145 39.7424C76.045 39.7424 75.373 39.7773 74.4984 39.8473C74.3312 39.5101 74.09 39.138 73.7749 38.7308C73.3248 39.0553 72.9839 39.2779 72.7524 39.3988C72.0643 39.7614 71.2894 39.9427 70.4277 39.9427C69.2508 39.9427 68.2894 39.6342 67.5434 39.0171C66.6881 38.3237 66.2604 37.4076 66.2604 36.2689C66.2604 35.1937 66.7235 34.319 67.6495 33.6446C67.9453 33.422 68.4887 33.123 69.2797 32.7476C68.926 32.3341 68.672 31.997 68.5177 31.7361C68.1833 31.1572 68.0161 30.5497 68.0161 29.9135C68.0161 28.8829 68.4051 28.0781 69.1833 27.4992C69.8328 27.0221 70.6945 26.7835 71.7685 26.7835C72.7395 26.7835 73.5016 26.9903 74.0547 27.4038C74.344 27.6265 74.5756 27.9096 74.7492 28.2531C74.91 28.5839 74.9903 28.9211 74.9903 29.2646C74.9903 30.0535 74.6141 30.7914 73.8617 31.4785C73.5273 31.7775 73.0804 32.0765 72.5209 32.3755C72.9132 32.9099 73.344 33.4951 73.8135 34.1313C73.9357 34.2967 74.4469 34.9106 75.3473 35.973C75.8489 35.3687 76.2315 34.8088 76.4952 34.2935C76.7524 33.7782 76.9646 33.1612 77.1318 32.4423ZM73.0322 37.7766L72.9068 37.6144L71.4309 35.6868L69.9936 33.845L69.8489 33.6542C69.5595 33.8832 69.3601 34.0868 69.2508 34.2649C69.045 34.583 68.9421 34.9488 68.9421 35.3623C68.9421 36.1512 69.2026 36.851 69.7235 37.4617C70.2508 38.0788 70.8457 38.3873 71.508 38.3873C71.9839 38.3873 72.492 38.1837 73.0322 37.7766ZM71.8457 31.4021C71.8907 31.364 71.9389 31.3226 71.9903 31.2781C72.672 30.7119 73.0129 30.0216 73.0129 29.2073C73.0129 28.8511 72.9389 28.5616 72.791 28.339C72.5981 28.04 72.3183 27.8905 71.9518 27.8905C71.6302 27.8905 71.3633 28.0113 71.1511 28.2531C70.9453 28.4885 70.8424 28.7748 70.8424 29.1119C70.8424 29.5572 71.0096 30.063 71.344 30.6292C71.4598 30.8264 71.627 31.0841 71.8457 31.4021Z" fill="#018C99"/>
<path d="M85.0804 26.6213C85.91 26.6849 86.537 26.7167 86.9614 26.7167C87.4116 26.7167 87.9839 26.6849 88.6785 26.6213C88.6592 27.2511 88.6367 27.9159 88.6109 28.6157C88.5723 29.5954 88.5466 30.432 88.5338 31.1254C88.5273 31.488 88.5209 31.787 88.5145 32.0224C89.627 32.0606 90.4952 32.0797 91.119 32.0797C91.6527 32.0797 92.508 32.0606 93.6849 32.0224C93.6785 31.787 93.6688 31.2399 93.6559 30.3811C93.6495 30.1203 93.627 29.5318 93.5884 28.6157C93.5627 27.9159 93.5402 27.2511 93.5209 26.6213C94.2154 26.6849 94.7878 26.7167 95.2379 26.7167C95.6624 26.7167 96.2894 26.6849 97.119 26.6213C97.1125 26.9521 97.0836 27.7282 97.0322 28.9497C96.9743 30.4193 96.9453 31.9556 96.9453 33.5588C96.9453 35.0792 97.0032 37.1722 97.119 39.8378C96.2122 39.7742 95.5981 39.7424 95.2765 39.7424C94.91 39.7424 94.3248 39.7742 93.5209 39.8378C93.6367 38.4064 93.6913 36.3961 93.6849 33.8069L93.3955 33.7973L91.0997 33.7782L88.8039 33.7973L88.5145 33.8069C88.5145 34.7357 88.5273 35.7631 88.5531 36.8891C88.5916 38.2569 88.6334 39.2398 88.6785 39.8378C87.8746 39.7742 87.2894 39.7424 86.9228 39.7424C86.6013 39.7424 85.9871 39.7742 85.0804 39.8378C85.2026 37.1977 85.2637 35.0983 85.2637 33.5397C85.2637 31.9556 85.2315 30.4256 85.1672 28.9497C85.1158 27.7155 85.0868 26.9394 85.0804 26.6213Z" fill="#018C99"/>
<path d="M106.524 26.4591C107.997 26.4591 109.334 26.7708 110.537 27.3943C112.653 28.4885 113.711 30.4193 113.711 33.1866C113.711 34.688 113.408 35.9158 112.804 36.87C112.129 37.9388 111.209 38.7404 110.045 39.2748C108.997 39.7583 107.788 40 106.418 40C104.154 40 102.344 39.3797 100.987 38.1392C99.7331 37.0068 99.1061 35.4323 99.1061 33.4156C99.1061 31.2654 99.7556 29.5891 101.055 28.3867C102.437 27.1016 104.26 26.4591 106.524 26.4591ZM106.37 27.7855C105.232 27.7855 104.341 28.2404 103.698 29.1501C102.997 30.1362 102.646 31.5007 102.646 33.2439C102.646 34.987 102.987 36.3484 103.669 37.3281C104.299 38.2251 105.222 38.6736 106.437 38.6736C107.621 38.6736 108.527 38.2219 109.158 37.3185C109.569 36.7269 109.842 36.0812 109.977 35.3814C110.106 34.7134 110.17 33.9977 110.17 33.2343C110.17 29.6018 108.904 27.7855 106.37 27.7855Z" fill="#018C99"/>
<path d="M123.588 35.1619C124.103 34.1631 124.762 32.7254 125.566 30.8487C126.312 29.0738 126.859 27.6646 127.206 26.6213C127.65 26.6786 128.055 26.7072 128.421 26.7072C128.794 26.7072 129.203 26.6786 129.646 26.6213C129.666 26.9458 129.781 28.129 129.994 30.1711C130.238 32.5886 130.704 35.8108 131.392 39.8378C130.556 39.7742 129.878 39.7424 129.357 39.7424C128.81 39.7424 128.238 39.7742 127.64 39.8378C127.531 37.1595 127.325 34.6053 127.023 32.1751L126.965 31.7266L126.801 32.0987L126.019 33.7973C124.862 36.3293 123.968 38.3428 123.338 39.8378C123.138 39.7869 122.939 39.7614 122.74 39.7614C122.547 39.7614 122.328 39.7869 122.084 39.8378C121.891 39.3797 121.244 37.9356 120.145 35.5054C119.444 34.0232 118.849 32.7413 118.36 31.6598C118.232 32.3914 118.064 33.7401 117.859 35.7058C117.678 37.5062 117.582 38.8803 117.569 39.8282C117.061 39.771 116.675 39.7424 116.412 39.7424C116.122 39.7424 115.723 39.7742 115.215 39.8378C115.569 38.2919 115.99 35.9889 116.479 32.929C116.813 30.6769 117.071 28.5744 117.251 26.6213C117.74 26.6849 118.138 26.7167 118.447 26.7167C118.762 26.7167 119.154 26.6849 119.624 26.6213L119.73 26.898C120.379 28.5521 120.836 29.6749 121.1 30.2666C121.666 31.5389 122.495 33.1707 123.588 35.1619Z" fill="#018C99"/>
<path d="M133.447 26.6213C134.585 26.6913 135.637 26.7263 136.601 26.7263C138.395 26.7263 139.862 26.6913 141 26.6213C140.987 27.0984 140.981 27.3911 140.981 27.4992C140.981 27.5183 140.987 27.8332 141 28.4439C139.277 28.3676 138.08 28.3294 137.412 28.3294C137.367 28.3294 137.183 28.3326 136.862 28.339C136.83 28.8097 136.814 29.4745 136.814 30.3334C136.814 30.6515 136.817 31.2081 136.823 32.0033V32.2228C138.553 32.1846 139.887 32.1274 140.826 32.051C140.801 32.5536 140.788 32.894 140.788 33.0721C140.788 33.3011 140.801 33.5619 140.826 33.8546C139.27 33.7719 137.936 33.7369 136.823 33.7496V33.9977L136.804 36.0685V36.4788C136.804 36.5933 136.81 37.08 136.823 37.9388V38.1678C138.334 38.1233 139.727 38.0501 141 37.9483C140.974 38.4128 140.961 38.7404 140.961 38.9312C140.961 39.1412 140.974 39.4434 141 39.8378C139.746 39.7742 138.405 39.7424 136.977 39.7424C135.55 39.7424 134.373 39.7742 133.447 39.8378C133.479 39.4306 133.511 38.6227 133.543 37.414C133.595 35.4609 133.621 34.1218 133.621 33.3965C133.621 32.5632 133.592 30.9759 133.534 28.6348C133.508 27.7887 133.479 27.1175 133.447 26.6213Z" fill="#018C99"/>
</svg>
