<svg width="193" height="56" viewBox="0 0 193 56" fill="none" xmlns="http://www.w3.org/2000/svg">
<path d="M1.1123 0.365234C2.95996 0.508464 4.35645 0.580078 5.30176 0.580078C6.30436 0.580078 7.5791 0.508464 9.12598 0.365234C9.08301 1.7832 9.03288 3.27995 8.97559 4.85547C8.88965 7.0612 8.83236 8.94466 8.80371 10.5059C8.78939 11.3223 8.77507 11.9954 8.76074 12.5254C11.2386 12.6113 13.1722 12.6543 14.5615 12.6543C15.7503 12.6543 17.6553 12.6113 20.2764 12.5254C20.262 11.9954 20.2406 10.7637 20.2119 8.83008C20.1976 8.24284 20.1475 6.91797 20.0615 4.85547C20.0042 3.27995 19.9541 1.7832 19.9111 0.365234C21.458 0.508464 22.7327 0.580078 23.7354 0.580078C24.6807 0.580078 26.0771 0.508464 27.9248 0.365234C27.9105 1.11003 27.846 2.85742 27.7314 5.60742C27.6025 8.91602 27.5381 12.375 27.5381 15.9844C27.5381 19.4076 27.667 24.1198 27.9248 30.1211C25.9053 29.9779 24.5374 29.9062 23.8213 29.9062C23.0049 29.9062 21.7015 29.9779 19.9111 30.1211C20.1689 26.8984 20.2907 22.3724 20.2764 16.543L19.6318 16.5215L14.5186 16.4785L9.40527 16.5215L8.76074 16.543C8.76074 18.6341 8.78939 20.9473 8.84668 23.4824C8.93262 26.5618 9.02572 28.7747 9.12598 30.1211C7.33561 29.9779 6.03223 29.9062 5.21582 29.9062C4.49967 29.9062 3.13184 29.9779 1.1123 30.1211C1.38444 24.1771 1.52051 19.4505 1.52051 15.9414C1.52051 12.375 1.44889 8.93034 1.30566 5.60742C1.19108 2.82878 1.12663 1.08138 1.1123 0.365234Z" fill="white"/>
<path d="M33.6826 0.365234C36.2178 0.522786 38.5596 0.601562 40.708 0.601562C44.7041 0.601562 47.9697 0.522786 50.5049 0.365234C50.4762 1.43945 50.4619 2.09831 50.4619 2.3418C50.4619 2.38477 50.4762 3.09375 50.5049 4.46875C46.6663 4.29688 44.0023 4.21094 42.5127 4.21094C42.4124 4.21094 42.0042 4.2181 41.2881 4.23242C41.2165 5.29232 41.1807 6.78906 41.1807 8.72266C41.1807 9.4388 41.1878 10.6921 41.2021 12.4824V12.9766C45.055 12.8906 48.027 12.7617 50.1182 12.5898C50.0609 13.7214 50.0322 14.4876 50.0322 14.8887C50.0322 15.4043 50.0609 15.9915 50.1182 16.6504C46.652 16.4642 43.68 16.3854 41.2021 16.4141V16.9727L41.1592 21.6348V22.5586C41.1592 22.8164 41.1735 23.9121 41.2021 25.8457V26.3613C44.568 26.2611 47.6689 26.0964 50.5049 25.8672C50.4476 26.9128 50.4189 27.6504 50.4189 28.0801C50.4189 28.5527 50.4476 29.2331 50.5049 30.1211C47.7119 29.9779 44.7256 29.9062 41.5459 29.9062C38.3662 29.9062 35.7451 29.9779 33.6826 30.1211C33.7542 29.2044 33.8258 27.3854 33.8975 24.6641C34.012 20.2669 34.0693 17.252 34.0693 15.6191C34.0693 13.7428 34.0049 10.1693 33.876 4.89844C33.8187 2.99349 33.7542 1.48242 33.6826 0.365234Z" fill="white"/>
<path d="M79.6807 29.6914L79.4014 30.1211C77.3245 29.9779 75.7705 29.9062 74.7393 29.9062C73.5648 29.9062 72.154 29.9779 70.5068 30.1211L70.1416 29.4121C68.2939 25.7454 66.7327 22.9238 65.458 20.9473C64.1689 18.9564 63.1305 17.4596 62.3428 16.457C62.3428 16.8438 62.3428 17.1302 62.3428 17.3164C62.3428 18.0326 62.4287 20.6823 62.6006 25.2656L62.7725 29.4551L62.7939 30.1211C61.5479 29.9779 60.3734 29.9062 59.2705 29.9062C58.3538 29.9062 56.8571 29.9779 54.7803 30.1211C54.8519 28.9896 54.9307 27.1061 55.0166 24.4707C55.1312 20.7754 55.1885 18.3405 55.1885 17.166C55.1885 13.2988 55.1169 9.41732 54.9736 5.52148L54.8232 1.11719L54.7803 0.365234C56.1982 0.508464 57.4801 0.580078 58.626 0.580078C59.2419 0.580078 60.5094 0.537109 62.4287 0.451172C63.904 0.379557 65.2217 0.34375 66.3818 0.34375C69.7048 0.34375 72.1611 0.916667 73.751 2.0625C75.5557 3.36589 76.458 5.3138 76.458 7.90625C76.458 10.4701 75.5413 12.4609 73.708 13.8789C72.7054 14.6523 71.4307 15.2109 69.8838 15.5547C71.0726 17.6888 72.5908 20.0879 74.4385 22.752C76.057 25.0579 77.8044 27.3711 79.6807 29.6914ZM62.3643 14.0938C62.9372 14.1654 63.4743 14.2012 63.9756 14.2012C65.9092 14.2012 67.2412 13.6712 67.9717 12.6113C68.6449 11.6087 68.9814 10.2982 68.9814 8.67969C68.9814 7.08984 68.6377 5.8151 67.9502 4.85547C67.32 3.96745 66.2028 3.52344 64.5986 3.52344C63.9398 3.52344 63.2165 3.58073 62.4287 3.69531L62.4072 4.125C62.3643 6.3737 62.3428 7.75586 62.3428 8.27148L62.3643 11.1719V14.0938Z" fill="white"/>
<path d="M82.2803 0.365234C84.0706 0.508464 85.4098 0.580078 86.2979 0.580078C87.1715 0.580078 88.5036 0.508464 90.2939 0.365234L90.251 1.56836C90.0218 7.89909 89.9072 12.5755 89.9072 15.5977C89.9072 20.3242 90.0361 25.1654 90.2939 30.1211C88.4606 29.9779 87.057 29.9062 86.083 29.9062C85.0374 29.9062 83.7699 29.9779 82.2803 30.1211C82.5381 23.819 82.667 18.9492 82.667 15.5117C82.667 12.5326 82.5524 7.88477 82.3232 1.56836L82.2803 0.365234Z" fill="white"/>
<path d="M100.284 30.1211L100.306 29.3691C100.563 23.0814 100.692 17.4167 100.692 12.375C100.692 8.7513 100.664 6.10872 100.606 4.44727C97.3551 4.47591 94.6911 4.6263 92.6143 4.89844C92.6859 4.19661 92.7217 3.51628 92.7217 2.85742C92.7217 2.16992 92.6859 1.33919 92.6143 0.365234C94.7054 0.508464 98.6012 0.580078 104.302 0.580078C110.002 0.580078 113.898 0.508464 115.989 0.365234C115.918 1.36784 115.882 2.19857 115.882 2.85742C115.882 3.48763 115.918 4.16797 115.989 4.89844C113.912 4.6263 111.248 4.47591 107.997 4.44727C107.925 6.00846 107.89 8.68685 107.89 12.4824C107.89 17.4095 108.026 23.0384 108.298 29.3691L108.319 30.1211C107.059 29.9779 105.72 29.9062 104.302 29.9062C102.884 29.9062 101.545 29.9779 100.284 30.1211Z" fill="white"/>
<path d="M131.651 0.365234L132.124 1.82617C135.948 13.8288 139.278 23.2604 142.114 30.1211C140.238 29.9779 138.634 29.9062 137.302 29.9062C136.056 29.9062 134.731 29.9779 133.327 30.1211C132.912 28.3021 132.081 25.2871 130.835 21.0762C128.371 20.9759 126.624 20.9258 125.593 20.9258C124.891 20.9258 123.409 20.9544 121.146 21.0117C119.799 24.6211 118.754 27.6576 118.009 30.1211C116.863 29.9779 116.054 29.9062 115.581 29.9062C115.065 29.9062 114.292 29.9779 113.261 30.1211C114.879 26.5977 117.056 21.5273 119.792 14.9102C122.485 8.37891 124.476 3.5306 125.765 0.365234C127.154 0.508464 128.185 0.580078 128.858 0.580078C129.603 0.580078 130.534 0.508464 131.651 0.365234ZM126.517 7.47656L126.065 8.63672L124.519 12.5039L122.972 16.3926L122.499 17.5312C123.831 17.6029 125.113 17.6387 126.345 17.6387C127.319 17.6387 128.479 17.61 129.825 17.5527L129.546 16.7148L126.796 8.33594L126.517 7.47656Z" fill="white"/>
<path d="M168.39 8.89453H167.509C167.165 7.57682 166.714 6.5599 166.155 5.84375C165.453 4.97005 164.522 4.3112 163.362 3.86719C162.174 3.40885 160.92 3.17969 159.603 3.17969C156.423 3.17969 154.067 4.4401 152.534 6.96094C151.088 9.35286 150.364 12.2389 150.364 15.6191C150.364 19.1712 151.059 22.0143 152.448 24.1484C153.15 25.237 154.167 26.1035 155.499 26.748C156.602 27.2637 157.769 27.5215 159.001 27.5215C160.09 27.5215 161.235 27.2637 162.438 26.748C162.524 25.1152 162.567 23.3177 162.567 21.3555C162.567 19.4219 162.517 17.5312 162.417 15.6836C164.293 15.7982 165.59 15.8555 166.306 15.8555C167.093 15.8555 168.275 15.7982 169.851 15.6836L169.829 16.3926C169.7 19.7298 169.636 21.8711 169.636 22.8164C169.636 24.793 169.707 26.6621 169.851 28.4238C166.356 29.8132 162.725 30.5078 158.958 30.5078C153.873 30.5078 149.913 29.3118 147.077 26.9199C145.573 25.6452 144.442 24.0267 143.683 22.0645C142.909 20.0592 142.522 17.9395 142.522 15.7051C142.522 12.2962 143.317 9.31706 144.907 6.76758C146.454 4.33268 148.724 2.52799 151.718 1.35352C154.024 0.451172 156.53 0 159.237 0C163.076 0 166.685 0.995443 170.065 2.98633C169.192 5.30664 168.633 7.27604 168.39 8.89453Z" fill="white"/>
<path d="M175.394 0.365234C177.929 0.522786 180.271 0.601562 182.419 0.601562C186.415 0.601562 189.681 0.522786 192.216 0.365234C192.187 1.43945 192.173 2.09831 192.173 2.3418C192.173 2.38477 192.187 3.09375 192.216 4.46875C188.377 4.29688 185.713 4.21094 184.224 4.21094C184.123 4.21094 183.715 4.2181 182.999 4.23242C182.927 5.29232 182.892 6.78906 182.892 8.72266C182.892 9.4388 182.899 10.6921 182.913 12.4824V12.9766C186.766 12.8906 189.738 12.7617 191.829 12.5898C191.772 13.7214 191.743 14.4876 191.743 14.8887C191.743 15.4043 191.772 15.9915 191.829 16.6504C188.363 16.4642 185.391 16.3854 182.913 16.4141V16.9727L182.87 21.6348V22.5586C182.87 22.8164 182.884 23.9121 182.913 25.8457V26.3613C186.279 26.2611 189.38 26.0964 192.216 25.8672C192.159 26.9128 192.13 27.6504 192.13 28.0801C192.13 28.5527 192.159 29.2331 192.216 30.1211C189.423 29.9779 186.437 29.9062 183.257 29.9062C180.077 29.9062 177.456 29.9779 175.394 30.1211C175.465 29.2044 175.537 27.3854 175.608 24.6641C175.723 20.2669 175.78 17.252 175.78 15.6191C175.78 13.7428 175.716 10.1693 175.587 4.89844C175.53 2.99349 175.465 1.48242 175.394 0.365234Z" fill="white"/>
<path d="M0 36.7788C1.55566 36.8755 2.99268 36.9238 4.31104 36.9238C6.76318 36.9238 8.76709 36.8755 10.3228 36.7788C10.3052 37.438 10.2964 37.8423 10.2964 37.9917C10.2964 38.0181 10.3052 38.4531 10.3228 39.2969C7.88818 39.1914 6.25342 39.1387 5.41846 39.1387C5.35693 39.1387 5.10645 39.1431 4.66699 39.1519C4.62305 39.8022 4.60107 40.7339 4.60107 41.9468C4.60107 42.3599 4.60547 43.1157 4.61426 44.2144V44.5176C6.6709 44.4912 8.49463 44.4121 10.0854 44.2803C10.0503 44.9746 10.0327 45.4448 10.0327 45.6909C10.0327 46.0073 10.0503 46.3677 10.0854 46.772C8.49463 46.6577 6.6709 46.6094 4.61426 46.627V46.9697C4.59668 50.5645 4.69775 53.2539 4.91748 55.0381C3.92432 54.9502 3.07178 54.9062 2.35986 54.9062C1.63037 54.9062 0.84375 54.9502 0 55.0381C0.158203 51.5137 0.237305 48.521 0.237305 46.0601C0.237305 44.9175 0.197754 42.751 0.118652 39.5605C0.0834961 38.3652 0.0439453 37.438 0 36.7788Z" fill="white"/>
<path d="M12.7354 36.7788C13.7021 36.8667 14.6074 36.9106 15.4512 36.9106C16.207 36.9106 16.9409 36.8667 17.6528 36.7788L17.6265 37.3193C17.4858 40.4746 17.4155 42.7729 17.4155 44.2144C17.4155 47.1763 17.4199 49.0659 17.4287 49.8833C17.4551 51.4214 17.4683 52.3662 17.4683 52.7178C17.6792 52.7266 17.8286 52.731 17.9165 52.731C18.1538 52.731 19.1294 52.6782 20.8433 52.5728C21.4761 52.5376 22.1616 52.4717 22.8999 52.375C22.8647 52.7529 22.8472 53.144 22.8472 53.5483C22.8472 53.9263 22.8647 54.4229 22.8999 55.0381C21.6958 54.9502 19.7227 54.9062 16.9805 54.9062C15.1611 54.9062 13.7461 54.9502 12.7354 55.0381C12.7529 54.7568 12.7837 53.6318 12.8276 51.6631C12.8892 48.877 12.9199 47.1367 12.9199 46.4424C12.9199 45.0977 12.9023 43.2651 12.8672 40.9448C12.8584 40.4087 12.8232 39.3145 12.7617 37.6621C12.7441 37.3018 12.7354 37.0073 12.7354 36.7788Z" fill="white"/>
<path d="M33.3149 36.5547C35.3276 36.5547 37.1558 36.9854 38.7993 37.8467C41.6909 39.3584 43.1367 42.0259 43.1367 45.8491C43.1367 47.9233 42.7236 49.6196 41.8975 50.938C40.9746 52.4146 39.7178 53.522 38.127 54.2603C36.6943 54.9282 35.042 55.2622 33.1699 55.2622C30.0762 55.2622 27.6021 54.4053 25.7476 52.6914C24.0337 51.127 23.1768 48.9517 23.1768 46.1655C23.1768 43.1948 24.0645 40.8789 25.8398 39.2178C27.7295 37.4424 30.2212 36.5547 33.3149 36.5547ZM33.104 38.3872C31.5483 38.3872 30.3311 39.0156 29.4521 40.2725C28.4941 41.6348 28.0151 43.52 28.0151 45.9282C28.0151 48.3364 28.481 50.2173 29.4126 51.5708C30.2739 52.8101 31.5352 53.4297 33.1963 53.4297C34.8135 53.4297 36.0527 52.8057 36.9141 51.5576C37.4766 50.7402 37.8501 49.8481 38.0347 48.8813C38.2104 47.9585 38.2983 46.9697 38.2983 45.915C38.2983 40.8965 36.5669 38.3872 33.104 38.3872Z" fill="white"/>
<path d="M55.1997 36.5547C57.2124 36.5547 59.0405 36.9854 60.6841 37.8467C63.5757 39.3584 65.0215 42.0259 65.0215 45.8491C65.0215 47.9233 64.6084 49.6196 63.7822 50.938C62.8594 52.4146 61.6025 53.522 60.0117 54.2603C58.5791 54.9282 56.9268 55.2622 55.0547 55.2622C51.9609 55.2622 49.4868 54.4053 47.6323 52.6914C45.9185 51.127 45.0615 48.9517 45.0615 46.1655C45.0615 43.1948 45.9492 40.8789 47.7246 39.2178C49.6143 37.4424 52.106 36.5547 55.1997 36.5547ZM54.9888 38.3872C53.4331 38.3872 52.2158 39.0156 51.3369 40.2725C50.3789 41.6348 49.8999 43.52 49.8999 45.9282C49.8999 48.3364 50.3657 50.2173 51.2974 51.5708C52.1587 52.8101 53.4199 53.4297 55.0811 53.4297C56.6982 53.4297 57.9375 52.8057 58.7988 51.5576C59.3613 50.7402 59.7349 49.8481 59.9194 48.8813C60.0952 47.9585 60.1831 46.9697 60.1831 45.915C60.1831 40.8965 58.4517 38.3872 54.9888 38.3872Z" fill="white"/>
<path d="M83.0435 54.7744L82.8721 55.0381C81.5977 54.9502 80.644 54.9062 80.0112 54.9062C79.2905 54.9062 78.4248 54.9502 77.4141 55.0381L77.1899 54.603C76.0562 52.353 75.0981 50.6216 74.3159 49.4087C73.5249 48.187 72.8877 47.2686 72.4043 46.6533C72.4043 46.8906 72.4043 47.0664 72.4043 47.1807C72.4043 47.6201 72.457 49.2461 72.5625 52.0586L72.668 54.6294L72.6812 55.0381C71.9165 54.9502 71.1958 54.9062 70.519 54.9062C69.9565 54.9062 69.0381 54.9502 67.7637 55.0381C67.8076 54.3438 67.856 53.188 67.9087 51.5708C67.979 49.3032 68.0142 47.8091 68.0142 47.0884C68.0142 44.7153 67.9702 42.3335 67.8823 39.9429L67.79 37.2402L67.7637 36.7788C68.6338 36.8667 69.4204 36.9106 70.1235 36.9106C70.5015 36.9106 71.2793 36.8843 72.457 36.8315C73.3623 36.7876 74.1709 36.7656 74.8828 36.7656C76.9219 36.7656 78.4292 37.1172 79.4048 37.8203C80.5122 38.6201 81.0659 39.8154 81.0659 41.4062C81.0659 42.9795 80.5034 44.2012 79.3784 45.0713C78.7632 45.5459 77.981 45.8887 77.0317 46.0996C77.7612 47.4092 78.6929 48.8813 79.8267 50.5161C80.8198 51.9312 81.8921 53.3506 83.0435 54.7744ZM72.4175 45.2031C72.769 45.2471 73.0986 45.269 73.4062 45.269C74.5928 45.269 75.4102 44.9438 75.8584 44.2935C76.2715 43.6782 76.478 42.874 76.478 41.8809C76.478 40.9053 76.2671 40.123 75.8452 39.5342C75.4585 38.9893 74.7729 38.7168 73.7886 38.7168C73.3843 38.7168 72.9404 38.752 72.457 38.8223L72.4438 39.0859C72.4175 40.4658 72.4043 41.314 72.4043 41.6304L72.4175 43.4102V45.2031Z" fill="white"/>
<path d="M105.416 44.8208H105.785C106.093 45.2603 106.321 45.5679 106.471 45.7437C106.638 45.9282 106.928 46.2007 107.341 46.561C106.532 47.8706 105.39 49.3032 103.913 50.8589C104.933 52.2915 106.08 53.6011 107.354 54.7876V55.0381C106.018 54.9502 105.091 54.9062 104.572 54.9062C103.931 54.9062 103.012 54.9546 101.817 55.0513C101.588 54.5854 101.259 54.0713 100.828 53.5088C100.213 53.957 99.7471 54.2646 99.4307 54.4316C98.4902 54.9326 97.4312 55.1831 96.2534 55.1831C94.645 55.1831 93.3311 54.7568 92.3115 53.9043C91.1426 52.9463 90.5581 51.6807 90.5581 50.1074C90.5581 48.6221 91.1909 47.4136 92.4565 46.4819C92.8608 46.1743 93.6035 45.7612 94.6846 45.2427C94.2012 44.6714 93.854 44.2056 93.6431 43.8452C93.186 43.0454 92.9575 42.2061 92.9575 41.3271C92.9575 39.9033 93.4893 38.7915 94.5527 37.9917C95.4404 37.3325 96.6182 37.0029 98.0859 37.0029C99.4131 37.0029 100.455 37.2886 101.21 37.8599C101.606 38.1675 101.922 38.5586 102.16 39.0332C102.379 39.4902 102.489 39.9561 102.489 40.4307C102.489 41.5205 101.975 42.54 100.947 43.4893C100.49 43.9023 99.8789 44.3154 99.1143 44.7285C99.6504 45.4668 100.239 46.2754 100.881 47.1543C101.048 47.3828 101.747 48.231 102.977 49.6987C103.663 48.8638 104.186 48.0903 104.546 47.3784C104.897 46.6665 105.188 45.814 105.416 44.8208ZM99.813 52.1904L99.6416 51.9663L97.6245 49.3032L95.6602 46.7588L95.4624 46.4951C95.0669 46.8115 94.7944 47.0928 94.645 47.3389C94.3638 47.7783 94.2231 48.2837 94.2231 48.855C94.2231 49.9448 94.5791 50.9116 95.291 51.7554C96.0117 52.6079 96.8247 53.0342 97.73 53.0342C98.3804 53.0342 99.0747 52.7529 99.813 52.1904ZM98.1914 43.3838C98.2529 43.3311 98.3188 43.2739 98.3892 43.2124C99.3208 42.4302 99.7866 41.4766 99.7866 40.3516C99.7866 39.8594 99.6855 39.4595 99.4834 39.1519C99.2197 38.7388 98.8374 38.5322 98.3364 38.5322C97.897 38.5322 97.5322 38.6992 97.2422 39.0332C96.9609 39.3584 96.8203 39.7539 96.8203 40.2197C96.8203 40.835 97.0488 41.5337 97.5059 42.3159C97.6641 42.5884 97.8926 42.9443 98.1914 43.3838Z" fill="white"/>
<path d="M116.279 36.7788C117.413 36.8667 118.27 36.9106 118.85 36.9106C119.465 36.9106 120.248 36.8667 121.197 36.7788C121.17 37.6489 121.14 38.5674 121.104 39.5342C121.052 40.8877 121.017 42.0435 120.999 43.0015C120.99 43.5024 120.981 43.9155 120.973 44.2407C122.493 44.2935 123.68 44.3198 124.532 44.3198C125.262 44.3198 126.431 44.2935 128.039 44.2407C128.03 43.9155 128.017 43.1597 128 41.9731C127.991 41.6128 127.96 40.7998 127.907 39.5342C127.872 38.5674 127.841 37.6489 127.815 36.7788C128.764 36.8667 129.546 36.9106 130.162 36.9106C130.742 36.9106 131.599 36.8667 132.732 36.7788C132.724 37.2358 132.684 38.3081 132.614 39.9956C132.535 42.0259 132.495 44.1484 132.495 46.3633C132.495 48.4639 132.574 51.3555 132.732 55.0381C131.493 54.9502 130.654 54.9062 130.214 54.9062C129.713 54.9062 128.914 54.9502 127.815 55.0381C127.973 53.0605 128.048 50.2832 128.039 46.7061L127.644 46.6929L124.506 46.6665L121.368 46.6929L120.973 46.7061C120.973 47.9893 120.99 49.4087 121.025 50.9644C121.078 52.854 121.135 54.2119 121.197 55.0381C120.098 54.9502 119.298 54.9062 118.797 54.9062C118.358 54.9062 117.519 54.9502 116.279 55.0381C116.446 51.3906 116.53 48.4902 116.53 46.3369C116.53 44.1484 116.486 42.0347 116.398 39.9956C116.328 38.2905 116.288 37.2183 116.279 36.7788Z" fill="white"/>
<path d="M145.586 36.5547C147.599 36.5547 149.427 36.9854 151.071 37.8467C153.962 39.3584 155.408 42.0259 155.408 45.8491C155.408 47.9233 154.995 49.6196 154.169 50.938C153.246 52.4146 151.989 53.522 150.398 54.2603C148.966 54.9282 147.313 55.2622 145.441 55.2622C142.348 55.2622 139.874 54.4053 138.019 52.6914C136.305 51.127 135.448 48.9517 135.448 46.1655C135.448 43.1948 136.336 40.8789 138.111 39.2178C140.001 37.4424 142.493 36.5547 145.586 36.5547ZM145.375 38.3872C143.82 38.3872 142.603 39.0156 141.724 40.2725C140.766 41.6348 140.287 43.52 140.287 45.9282C140.287 48.3364 140.752 50.2173 141.684 51.5708C142.545 52.8101 143.807 53.4297 145.468 53.4297C147.085 53.4297 148.324 52.8057 149.186 51.5576C149.748 50.7402 150.122 49.8481 150.306 48.8813C150.482 47.9585 150.57 46.9697 150.57 45.915C150.57 40.8965 148.838 38.3872 145.375 38.3872Z" fill="white"/>
<path d="M168.908 48.5781C169.611 47.1982 170.512 45.2119 171.611 42.6191C172.63 40.167 173.377 38.2202 173.852 36.7788C174.458 36.8579 175.012 36.8975 175.513 36.8975C176.023 36.8975 176.581 36.8579 177.188 36.7788C177.214 37.2271 177.372 38.8618 177.662 41.6831C177.996 45.0229 178.633 49.4746 179.574 55.0381C178.431 54.9502 177.504 54.9062 176.792 54.9062C176.045 54.9062 175.263 54.9502 174.445 55.0381C174.296 51.3379 174.015 47.8091 173.602 44.4517L173.522 43.832L173.298 44.3462L172.23 46.6929C170.648 50.1909 169.427 52.9727 168.565 55.0381C168.293 54.9678 168.021 54.9326 167.748 54.9326C167.484 54.9326 167.186 54.9678 166.852 55.0381C166.588 54.4053 165.705 52.4102 164.202 49.0527C163.244 47.0049 162.431 45.2339 161.763 43.7397C161.587 44.7505 161.358 46.6138 161.077 49.3296C160.831 51.8169 160.699 53.7153 160.682 55.0249C159.987 54.9458 159.46 54.9062 159.1 54.9062C158.704 54.9062 158.159 54.9502 157.465 55.0381C157.948 52.9023 158.524 49.7207 159.192 45.4932C159.649 42.3818 160 39.4771 160.247 36.7788C160.915 36.8667 161.459 36.9106 161.881 36.9106C162.312 36.9106 162.848 36.8667 163.49 36.7788L163.635 37.1611C164.522 39.4463 165.146 40.9976 165.507 41.8149C166.28 43.5728 167.414 45.8271 168.908 48.5781Z" fill="white"/>
<path d="M182.382 36.7788C183.938 36.8755 185.375 36.9238 186.693 36.9238C189.145 36.9238 191.149 36.8755 192.705 36.7788C192.687 37.438 192.678 37.8423 192.678 37.9917C192.678 38.0181 192.687 38.4531 192.705 39.2969C190.349 39.1914 188.714 39.1387 187.8 39.1387C187.739 39.1387 187.488 39.1431 187.049 39.1519C187.005 39.8022 186.983 40.7207 186.983 41.9072C186.983 42.3467 186.987 43.1157 186.996 44.2144V44.5176C189.36 44.4648 191.184 44.3857 192.467 44.2803C192.432 44.9746 192.415 45.4448 192.415 45.6909C192.415 46.0073 192.432 46.3677 192.467 46.772C190.34 46.6577 188.517 46.6094 186.996 46.627V46.9697L186.97 49.8306V50.3975C186.97 50.5557 186.979 51.228 186.996 52.4146V52.731C189.062 52.6694 190.964 52.5684 192.705 52.4277C192.669 53.0693 192.652 53.522 192.652 53.7856C192.652 54.0757 192.669 54.4932 192.705 55.0381C190.991 54.9502 189.158 54.9062 187.207 54.9062C185.256 54.9062 183.647 54.9502 182.382 55.0381C182.426 54.4756 182.47 53.3594 182.514 51.6895C182.584 48.9912 182.619 47.1411 182.619 46.1392C182.619 44.9878 182.58 42.7949 182.5 39.5605C182.465 38.3916 182.426 37.4644 182.382 36.7788Z" fill="white"/>
</svg>
